<?xml version="1.0" encoding="UTF-8"?><!DOCTYPE svg PUBLIC "-//W3C//DTD SVG 1.1//EN" "http://www.w3.org/Graphics/SVG/1.1/DTD/svg11.dtd"><svg xmlns="http://www.w3.org/2000/svg" xmlns:xlink="http://www.w3.org/1999/xlink" version="1.1" width="24" height="24" viewBox="0 0 24 24"><path d="M 4 11 C 2.8954305 11 2 11.895431 2 13 L 2 15 C 2 16.104569 2.8954305 17 4 17 L 8 17 L 8 13 C 8 11.895431 7.1045695 11 6 11 L 4 11 z M 20 11 C 18.895431 11 18 11.895431 18 13 L 18 15 C 18 16.104569 18.895431 17 20 17 L 22 17 L 22 15 L 20 15 L 20 13 L 22 13 L 22 11 L 20 11 z M 4 13 L 6 13 L 6 15 L 4 15 L 4 13 z M 9.5332031 18.388672 L 9.5332031 20.388672 L 17.464844 20.388672 L 17.464844 18.388672 L 9.5332031 18.388672 z" /></svg>
