<?xml version="1.0" encoding="UTF-8"?><!DOCTYPE svg PUBLIC "-//W3C//DTD SVG 1.1//EN" "http://www.w3.org/Graphics/SVG/1.1/DTD/svg11.dtd"><svg xmlns="http://www.w3.org/2000/svg" xmlns:xlink="http://www.w3.org/1999/xlink" version="1.1" width="24" height="24" viewBox="0 0 24 24"><path d="M 8.078125,3.0498099 5.0859376,3.0634818 C 4.3963082,3.0601006 3.7980443,3.4208701 3.4277344,3.9462943 3.2127431,4.261062 3.09055,4.652783 3.0800782,5.0732474 l 0.037109,3.9921875 c 0.00847,1.1113631 0.9246332,2.0038811 2.0136718,1.9941401 L 8.125,11.047857 c 1.1150661,0.0052 1.997843,-0.895563 1.998047,-2.0019533 l -0.01758,-2.0371094 h 8.814453 V 20.9502 h 2 V 7.0087943 c 0,-1.10457 -0.895401,-2 -2,-2 H 10.082031 C 10.053711,3.9115782 9.1820539,3.0463614 8.078125,3.0498099 Z m 0.5527344,9.3242181 -3.9960937,0.01563 -1.4921875,4.009766 1.5019531,-0.0059 3.9960937,-0.01367 1.5,-0.0039 z" /></svg>