<?xml version="1.0" encoding="UTF-8"?><!DOCTYPE svg PUBLIC "-//W3C//DTD SVG 1.1//EN" "http://www.w3.org/Graphics/SVG/1.1/DTD/svg11.dtd"><svg xmlns="http://www.w3.org/2000/svg" xmlns:xlink="http://www.w3.org/1999/xlink" version="1.1" width="24" height="24" viewBox="0 0 24 24"><path d="m 18.012894,3.7390123 c -2.254006,0 -4.013532,1.7780517 -4.013532,4.1118467 2.63e-4,1.0001973 1.332895,1.0001973 1.332895,0 0,-1.3335976 0.982268,-2.7782708 2.680637,-2.7782708 1.698282,0 2.677223,1.4446732 2.677223,2.7782708 0,1.0001973 1.336649,1.0001973 1.336649,0 0,-2.333795 -1.759953,-4.1118467 -4.013872,-4.1118467 z m 0.128697,3.2689943 c -0.486246,0 -0.880231,0.3938972 -0.880231,0.8802314 0,0.4863353 0.393985,0.8800622 0.880231,0.8800622 0.486336,0 0.880233,-0.3937269 0.880233,-0.8800622 0,-0.4863342 -0.393897,-0.8802314 -0.880233,-0.8802314 z m -6.417996,2.6210677 c -1.16362,0 -2.4135999,0.6861987 -3.0471016,1.5621257 C 8.043078,10.315273 6.79446,9.7401913 5.6309274,9.7401913 c -1.9226169,0 -3.7105613,1.1810597 -3.7105613,4.4221537 v 5.433817 c 0,0.368268 0.2987757,0.664826 0.6670439,0.664826 0.3685308,0 0.6672154,-0.298742 0.6672154,-0.664826 v -5.433817 c -5.958e-4,-2.463221 1.1880377,-3.090285 2.376302,-3.090285 1.1881773,0 2.3764735,0.987697 2.3764735,2.654693 v 5.869409 c 0,0.368268 0.2986047,0.664826 0.6668726,0.664826 h 0.00288 0.00288 c 0.3682691,0 0.667044,-0.296558 0.667044,-0.664826 v -5.869409 c 0,-1.666996 1.1882085,-2.654693 2.3764735,-2.654693 0.754365,0 2.376132,0.335056 2.376132,2.654693 l 0.04506,1.971263 c 0,3.642572 2.445067,4.562972 4.000901,4.562972 1.555834,0 3.886449,-1.074724 3.93399,-4.297554 v -5.156962 c 0,-0.8872008 -1.338013,-0.8872008 -1.338013,0 v 5.156962 c 0,2.444956 -1.818105,2.965855 -2.595977,2.965855 -0.777961,0 -2.667153,-0.366661 -2.667153,-3.231273 l -0.04456,-1.863389 c 0,-2.7628 -1.733591,-4.2055528 -3.71039,-4.2055528 z"/></svg>