<?xml version="1.0" encoding="UTF-8"?><!DOCTYPE svg PUBLIC "-//W3C//DTD SVG 1.1//EN" "http://www.w3.org/Graphics/SVG/1.1/DTD/svg11.dtd"><svg xmlns="http://www.w3.org/2000/svg" xmlns:xlink="http://www.w3.org/1999/xlink" version="1.1" width="24" height="24" viewBox="0 0 24 24"><path d="m 12.0001,12.19605 c 1.332556,0 2.412797,1.0803 2.412797,2.4129 0,1.3324 -1.080241,2.4127 -2.412797,2.4127 -1.332556,0 -2.4127958,-1.0803 -2.4127958,-2.4127 0,-1.3326 1.0802398,-2.4129 2.4127958,-2.4129 z m -0.554917,-10.0128998 -5.19e-4,0.01 c 0,0 3.474322,5.7182001 2.171426,4.3431001 -0.239514,-0.2528 -0.565504,-0.3677 -0.931402,-0.3947 0.243967,1.1036 0.651326,1.3538 1.29412,1.6781999 0.704845,0.3557001 1.865316,0.5922001 2.912111,1.5325001 l 0.0054,-0.011 0.18771,0.1877 0.18762,0.1876 -0.0035,0.011 c 1.192329,1.2835997 1.852338,2.9345997 1.915758,4.6275997 h 0.006 v 0.5309 h -0.0054 c -0.03053,0.8397 -0.208378,1.6815 -0.541663,2.4861 -0.33329,0.8047 -0.802766,1.5257 -1.37494,2.141 l 0.0042,0.011 -0.375329,0.3753 -0.0042,-0.011 c -1.242143,1.1524 -2.876205,1.8534 -4.62691,1.9174 v 0.011 h -0.265409 -0.26541 v -0.011 c -1.7506978,-0.064 -3.3846768,-0.7651 -4.6268258,-1.9176 l -0.0042,0.011 -0.375354,-0.3754 0.0042,-0.011 c -0.572167,-0.6153 -1.041649,-1.3363 -1.374934,-2.1409 -0.333285,-0.8048 -0.511092,-1.6464 -0.541639,-2.4861 h -0.006 v -0.5308 h 0.006 c 0.06343,-1.6935 0.7234179,-3.3441 1.9157279,-4.6276997 l -0.0036,-0.011 0.1876499,-0.1876 0.187703,-0.1877 1.9278631,1.9278997 0.545962,-0.546 0.5459249,2.0133 -2.0132019,-0.546 0.545962,-0.546 -0.489823,-0.4899 C 7.35689,12.05075 6.902127,13.18225 6.842374,14.34745 h 0.694044 v -0.7722 l 1.8095771,1.0376 -1.8095771,1.0375 v -0.7721 H 6.842714 c 0.02994,0.5774 0.157204,1.1557 0.387012,1.7105 0.2297961,0.5548 0.548653,1.0537 0.9358031,1.4832 l 0.490525,-0.4905 -0.545932,-0.546 2.0132019,-0.5459 -0.5459249,2.0131 -0.545962,-0.5459 -0.490751,0.4907 c 0.866194,0.7817 1.9878169,1.2607 3.1939249,1.3217 v -0.6927 h -0.772085 l 1.037494,-1.8096 1.037499,1.8096 h -0.772083 v 0.6927 c 1.206101,-0.062 2.327641,-0.5401 3.193835,-1.3217 l -0.490692,-0.4907 -0.54596,0.5459 -0.545902,-2.0131 2.013177,0.5459 -0.545932,0.546 0.490555,0.4905 c 0.387156,-0.4294 0.705971,-0.9284 0.935773,-1.4832 0.229807,-0.5548 0.357062,-1.1331 0.387012,-1.7105 h -0.693675 v 0.7721 l -1.809576,-1.0375 1.809576,-1.0376 v 0.7722 h 0.694014 c -0.05976,-1.1652 -0.514515,-2.2966 -1.323886,-3.1931 l -0.489823,0.4899 0.545962,0.546 -2.013177,0.546 0.545902,-2.0133 0.54596,0.546 0.483725,-0.4838 c -0.597545,-0.4752 -1.405301,-0.6671 -2.386143,-1.1619997 -0.962086,-0.4856 -1.939844,-1.4454 -2.3577,-3.1064 -1.0107339,0.3559 -1.7296019,0.7431 -1.1936079,0.134 1.0616079,-1.2063 1.9302499,-4.4636001 1.9302499,-4.4636001 z" /></svg>
