<?xml version="1.0" encoding="UTF-8"?><!DOCTYPE svg PUBLIC "-//W3C//DTD SVG 1.1//EN" "http://www.w3.org/Graphics/SVG/1.1/DTD/svg11.dtd"><svg xmlns="http://www.w3.org/2000/svg" xmlns:xlink="http://www.w3.org/1999/xlink" version="1.1" width="24" height="24" viewBox="0 0 24 24"><path d="M 6.3847656 3.8046875 L 6.3847656 16.242188 L 8.6386719 16.242188 L 8.6386719 3.8046875 L 6.3847656 3.8046875 z M 10.845703 3.8046875 L 10.845703 16.242188 L 11.605469 16.242188 L 11.605469 3.8046875 L 10.845703 3.8046875 z M 15.259766 3.8046875 L 15.259766 16.208984 L 16.03125 16.208984 L 16.03125 3.8046875 L 15.259766 3.8046875 z M 16.753906 3.8046875 L 16.753906 16.242188 L 19.009766 16.242188 L 19.009766 3.8046875 L 16.753906 3.8046875 z M 1.984375 3.8378906 L 1.984375 16.242188 L 2.7070312 16.242188 L 2.7070312 3.8378906 L 1.984375 3.8378906 z M 3.4765625 3.8378906 L 3.4765625 16.207031 L 5.6621094 16.207031 L 5.6621094 3.8378906 L 3.4765625 3.8378906 z M 9.3867188 3.8378906 L 9.3867188 16.208984 L 10.074219 16.208984 L 10.074219 3.8378906 L 9.3867188 3.8378906 z M 12.353516 3.8378906 L 12.353516 16.242188 L 14.572266 16.242188 L 14.572266 3.8378906 L 12.353516 3.8378906 z M 19.832031 3.8378906 L 19.832031 16.242188 L 20.558594 16.242188 L 20.558594 3.8378906 L 19.832031 3.8378906 z M 21.328125 3.8378906 L 21.328125 16.242188 L 22.050781 16.242188 L 22.050781 3.8378906 L 21.328125 3.8378906 z M 1.9257812 17.589844 L 3.0566406 20.195312 L 3.3320312 20.195312 L 4.1289062 18.517578 L 4.9277344 20.195312 L 5.203125 20.195312 L 6.3300781 17.589844 L 5.6503906 17.589844 L 5.0488281 19.011719 L 4.3867188 17.589844 L 3.8710938 17.589844 L 3.2109375 19.011719 L 2.6054688 17.589844 L 1.9257812 17.589844 z M 6.6425781 17.589844 L 6.6425781 20.162109 L 7.2832031 20.162109 L 7.2832031 17.589844 L 6.6425781 17.589844 z M 7.8769531 17.589844 L 7.8769531 20.162109 L 8.5175781 20.162109 L 8.5175781 18.957031 L 9.5351562 20.162109 L 10.337891 20.162109 L 9.203125 18.798828 L 10.039062 17.589844 L 9.3339844 17.589844 L 8.5175781 18.748047 L 8.5175781 17.589844 L 7.8769531 17.589844 z M 10.613281 17.589844 L 10.613281 20.162109 L 11.253906 20.162109 L 11.253906 17.589844 L 10.613281 17.589844 z M 11.845703 17.589844 L 11.845703 20.162109 L 12.908203 20.162109 C 13.386914 20.162109 13.755903 20.049347 14.013672 19.822266 C 14.272665 19.59396 14.402341 19.279787 14.402344 18.880859 C 14.402341 18.500346 14.27484 18.190532 14.019531 17.951172 C 13.765443 17.710592 13.418673 17.589848 12.980469 17.589844 L 11.845703 17.589844 z M 15.431641 17.589844 L 14.394531 20.162109 L 15.074219 20.162109 L 15.265625 19.654297 L 16.416016 19.654297 L 16.626953 20.162109 L 17.316406 20.162109 L 16.175781 17.589844 L 15.431641 17.589844 z M 16.984375 17.589844 L 16.984375 18.0625 L 17.916016 18.0625 L 17.916016 20.162109 L 18.556641 20.162109 L 18.556641 18.0625 L 19.488281 18.0625 L 19.488281 17.589844 L 16.984375 17.589844 z M 20.189453 17.589844 L 19.152344 20.162109 L 19.832031 20.162109 L 20.023438 19.654297 L 21.173828 19.654297 L 21.384766 20.162109 L 22.074219 20.162109 L 20.931641 17.589844 L 20.189453 17.589844 z M 12.486328 18.0625 L 12.898438 18.0625 C 13.170933 18.062503 13.378595 18.135185 13.523438 18.28125 C 13.669501 18.426092 13.742185 18.624096 13.742188 18.876953 C 13.742185 19.121221 13.670958 19.319 13.527344 19.46875 C 13.383731 19.617276 13.175566 19.691406 12.904297 19.691406 L 12.486328 19.691406 L 12.486328 18.0625 z M 15.8125 18.205078 L 16.226562 19.205078 L 15.435547 19.205078 L 15.8125 18.205078 z M 20.570312 18.205078 L 20.984375 19.205078 L 20.193359 19.205078 L 20.570312 18.205078 z"/></svg>
