<?xml version="1.0" encoding="UTF-8" standalone="no"?>
<!-- Created with Inkscape (http://www.inkscape.org/) -->

<svg
   xmlns:dc="http://purl.org/dc/elements/1.1/"
   xmlns:cc="http://creativecommons.org/ns#"
   xmlns:rdf="http://www.w3.org/1999/02/22-rdf-syntax-ns#"
   xmlns:svg="http://www.w3.org/2000/svg"
   xmlns="http://www.w3.org/2000/svg"
   xmlns:sodipodi="http://sodipodi.sourceforge.net/DTD/sodipodi-0.dtd"
   xmlns:inkscape="http://www.inkscape.org/namespaces/inkscape"
   version="1.1"
   id="svg3753"
   width="220"
   height="220"
   viewBox="0 0 220 220"
   sodipodi:docname="baldr.svg"
   inkscape:version="0.92.3 (2405546, 2018-03-11)">
  <metadata
     id="metadata3759">
    <rdf:RDF>
      <cc:Work
         rdf:about="">
        <dc:format>image/svg+xml</dc:format>
        <dc:type
           rdf:resource="http://purl.org/dc/dcmitype/StillImage" />
        <dc:title></dc:title>
      </cc:Work>
    </rdf:RDF>
  </metadata>
  <defs
     id="defs3757" />
  <sodipodi:namedview
     pagecolor="#ffffff"
     bordercolor="#666666"
     borderopacity="1"
     objecttolerance="10"
     gridtolerance="10"
     guidetolerance="10"
     inkscape:pageopacity="0"
     inkscape:pageshadow="2"
     inkscape:window-width="3836"
     inkscape:window-height="2109"
     id="namedview3755"
     showgrid="false"
     inkscape:zoom="16"
     inkscape:cx="137.81037"
     inkscape:cy="34.034017"
     inkscape:window-x="0"
     inkscape:window-y="24"
     inkscape:window-maximized="0"
     inkscape:current-layer="layer4"
     showguides="true"
     inkscape:guide-bbox="true">
    <sodipodi:guide
       position="110.81028,131.917"
       orientation="0,1"
       id="guide876"
       inkscape:locked="false" />
  </sodipodi:namedview>
  <g
     inkscape:groupmode="layer"
     id="layer1"
     inkscape:label="Original"
     style="display:none">
    <path
       style="fill:#008080;stroke-width:1.33333337"
       d="m 102.48796,210.74634 c -0.73405,-0.91666 -1.7325,-5.86666 -2.21878,-11 -1.767061,-18.65392 -2.238431,-20.66666 -4.840021,-20.66666 -1.33694,0 -7.41881,1.1958 -13.51526,2.65732 -25.170482,6.03422 -26.847182,4.17034 -28.578752,-31.76963 -0.66027,-13.70447 -1.45495,-19.64644 -2.80851,-21 -1.08245,-1.08246 -4.54866,-1.8964 -8.12578,-1.90811 -10.65062,-0.0348 -10.70663,-0.28292 -4.25607,-18.84987 4.91687,-14.152433 5.85204,-18.615113 6.66299,-31.796387 1.41346,-22.974814 7.04081,-36.238043 21.04089,-49.591862 C 79.793139,13.520378 95.384829,8.2286478 120.82943,8.1609878 c 16.76229,-0.04457 26.75164,2.2562152 37.73045,8.6902262 18.8987,11.075374 28.24201,35.431687 24.94476,65.026433 -2.35936,21.176573 -7.65901,35.106543 -18.64292,49.002223 l -5.52931,6.9951 1.54212,12.93569 c 0.84817,7.11463 2.92424,23.13568 4.61351,35.60235 2.11914,15.6392 2.64924,23.18339 1.70979,24.33333 -1.01835,1.24652 -9.17802,1.66667 -32.3684,1.66667 -23.20475,0 -31.34264,-0.41937 -32.34147,-1.66667 z"
       id="path3763"
       inkscape:connector-curvature="0"
       sodipodi:nodetypes="ccsssccssssssscssssc" />
    <g
       transform="matrix(0.4175445,0,0,0.4175445,-116.20682,41.486993)"
       id="g4014">
      <path
         inkscape:connector-curvature="0"
         d="m 473.68599,137.82471 c 1.712,0 3.451,-0.368 5.101,-1.145 l 143.171,-67.378002 c 5.997,-2.821 8.57,-9.971 5.748,-15.967 -2.822,-5.997 -9.973,-8.569 -15.967,-5.748 l -143.17,67.378002 c -5.997,2.821 -8.57,9.971 -5.748,15.967 2.045,4.345 6.361,6.893 10.865,6.893 z"
         id="path4004"
         style="fill:#ffffff" />
      <path
         inkscape:connector-curvature="0"
         d="m 474.47699,98.676708 c 1.735,0 3.499,-0.379 5.169,-1.178 l 142.741,-68.272 c 5.979,-2.859 8.508,-10.024 5.647,-16.003 -2.858,-5.9780004 -10.023,-8.5070004 -16.003,-5.6470004 l -142.741,68.2710004 c -5.979,2.859 -8.507,10.024 -5.648,16.003 2.062,4.309 6.357,6.826 10.835,6.826 z"
         id="path4006"
         style="fill:#ffffff" />
      <path
         inkscape:connector-curvature="0"
         d="m 518.14799,39.985708 c 1.731,0 3.491,-0.377 5.159,-1.173 11.506,-5.49 23.148,-11.139 34.408,-16.602 6.542,-3.174 13.083,-6.348 19.631,-9.507 5.969,-2.8800004 8.473,-10.0540004 5.593,-16.0230004 -2.88,-5.969 -10.053,-8.4719996 -16.022,-5.593 -6.563,3.167 -13.12,6.348 -19.678,9.52899995 -11.225,5.44600005 -22.832,11.07700045 -34.268,16.53400045 -5.981,2.854 -8.517,10.017 -5.662,15.998 2.059,4.316 6.357,6.837 10.839,6.837 z"
         id="path4008"
         style="fill:#ffffff" />
      <path
         inkscape:connector-curvature="0"
         d="m 611.73199,124.70571 -71.135,33.535 c -5.994,2.826 -8.563,9.977 -5.737,15.972 2.047,4.342 6.361,6.886 10.862,6.886 1.714,0 3.456,-0.369 5.109,-1.148 l 71.135,-33.535 c 5.994,-2.826 8.563,-9.977 5.737,-15.972 -2.826,-5.996 -9.976,-8.563 -15.971,-5.738 z"
         id="path4010"
         style="fill:#ffffff" />
      <path
         inkscape:connector-curvature="0"
         d="m 628.10199,168.27871 c -2.781,-6.017 -9.914,-8.642 -15.928,-5.857 l -50.087,23.078 c -4.246,1.963 -7.131,6.215 -7.131,10.893 v 12.861 h -20 v -13.762 c 0,-4.191 -2.02,-8.079 -5.603,-10.256 l -30.371,-18.504 122.934,-57.831 c 5.997,-2.821 8.591,-9.971002 5.769,-15.967002 -2.822,-5.997 -9.958,-8.568 -15.956,-5.748 l -143.165,67.374002 c -5.997,2.821 -8.568,9.971 -5.745,15.967 1.212,2.576 3.06,4.514 5.435,5.67 l 42.703,26.045 v 7.012 h -0.667 c -8.284,0 -15.333,6.716 -15.333,15 v 15 c 0,8.284 7.049,15 15.333,15 h 1.114 c 0.4,17.878 15.008,32.25 32.981,32.25 17.973,0 32.581,-14.372 32.981,-32.25 h 0.923 c 8.284,0 14.667,-6.716 14.667,-15 v -15 c 0,-7.946 -6,-14.433 -14,-14.949 v -5.239 l 43.122,-19.858 c 6.016,-2.782 8.805,-9.913 6.024,-15.929 z"
         id="path4012"
         style="fill:#ffffff" />
    </g>
  </g>
  <g
     style="display:inline"
     inkscape:label="Dev"
     id="g874"
     inkscape:groupmode="layer">
    <path
       sodipodi:nodetypes="ccsssccssssssscssssc"
       inkscape:connector-curvature="0"
       id="path860"
       d="m 101.07696,210.74634 c -0.73405,-0.91666 -1.732506,-5.86666 -2.218786,-11 -1.76706,-18.65392 -2.23843,-20.66666 -4.84002,-20.66666 -1.33694,0 -7.418812,1.1958 -13.515262,2.65732 -25.170482,6.03422 -26.847182,4.17034 -28.578752,-31.76963 -0.66027,-13.70447 -1.45495,-19.64644 -2.80851,-21 -1.08245,-1.08246 -4.54866,-1.8964 -8.12578,-1.90811 -10.65062,-0.0348 -10.70663,-0.28292 -4.25607,-18.84987 C 41.65065,94.056958 42.58582,89.594277 43.39677,76.413003 44.81023,53.438189 50.43758,40.17496 64.43766,26.821141 78.382132,13.520378 93.973824,8.2286476 119.41843,8.1609876 c 16.76229,-0.04457 26.75164,2.2562154 37.73045,8.6902264 18.8987,11.075374 28.24201,35.431687 24.94476,65.026433 -2.35936,21.176573 -7.65901,35.106543 -18.64292,49.002223 l -5.52931,6.9951 1.54212,12.93569 c 0.84817,7.11463 2.92424,23.13568 4.61351,35.60235 2.11914,15.6392 2.64924,23.18339 1.70979,24.33333 -1.01835,1.24652 -9.17802,1.66667 -32.3684,1.66667 -23.20475,0 -31.34264,-0.41937 -32.34147,-1.66667 z"
       style="fill:#008080;stroke-width:1.33333337" />
    <g
       id="g872"
       transform="matrix(0.43305415,0.20381258,-0.20381258,0.43305415,-101.52748,-75.730929)">
      <path
         style="fill:#ffffff"
         id="path862"
         d="m 473.68599,137.82471 c 1.712,0 3.451,-0.368 5.101,-1.145 l 143.171,-67.378002 c 5.997,-2.821 8.57,-9.971 5.748,-15.967 -2.822,-5.997 -9.973,-8.569 -15.967,-5.748 l -143.17,67.378002 c -5.997,2.821 -8.57,9.971 -5.748,15.967 2.045,4.345 6.361,6.893 10.865,6.893 z"
         inkscape:connector-curvature="0" />
      <path
         style="fill:#ffffff"
         id="path864"
         d="m 474.47699,98.676708 c 1.735,0 3.499,-0.379 5.169,-1.178 l 142.741,-68.272 c 5.979,-2.859 8.508,-10.024 5.647,-16.003 -2.858,-5.9780004 -10.023,-8.5070004 -16.003,-5.6470004 l -142.741,68.2710004 c -5.979,2.859 -8.507,10.024 -5.648,16.003 2.062,4.309 6.357,6.826 10.835,6.826 z"
         inkscape:connector-curvature="0" />
      <path
         style="fill:#ffffff"
         id="path866"
         d="m 518.14799,39.985708 c 1.731,0 3.491,-0.377 5.159,-1.173 11.506,-5.49 23.148,-11.139 34.408,-16.602 6.542,-3.174 13.083,-6.348 19.631,-9.507 5.969,-2.8800004 8.473,-10.0540004 5.593,-16.0230004 -2.88,-5.969 -10.053,-8.4719996 -16.022,-5.593 -6.563,3.167 -13.12,6.348 -19.678,9.52899995 -11.225,5.44600005 -22.832,11.07700045 -34.268,16.53400045 -5.981,2.854 -8.517,10.017 -5.662,15.998 2.059,4.316 6.357,6.837 10.839,6.837 z"
         inkscape:connector-curvature="0" />
      <path
         style="fill:#ffffff"
         id="path868"
         d="m 611.73199,124.70571 -71.135,33.535 c -5.994,2.826 -8.563,9.977 -5.737,15.972 2.047,4.342 6.361,6.886 10.862,6.886 1.714,0 3.456,-0.369 5.109,-1.148 l 71.135,-33.535 c 5.994,-2.826 8.563,-9.977 5.737,-15.972 -2.826,-5.996 -9.976,-8.563 -15.971,-5.738 z"
         inkscape:connector-curvature="0" />
      <path
         style="fill:#ffffff"
         id="path870"
         d="m 628.10199,168.27871 c -2.781,-6.017 -9.914,-8.642 -15.928,-5.857 l -50.087,23.078 c -4.246,1.963 -7.131,6.215 -7.131,10.893 v 12.861 h -20 v -13.762 c 0,-4.191 -2.02,-8.079 -5.603,-10.256 l -30.371,-18.504 122.934,-57.831 c 5.997,-2.821 8.591,-9.971002 5.769,-15.967002 -2.822,-5.997 -9.958,-8.568 -15.956,-5.748 l -143.165,67.374002 c -5.997,2.821 -8.568,9.971 -5.745,15.967 1.212,2.576 3.06,4.514 5.435,5.67 l 42.703,26.045 v 7.012 h -0.667 c -8.284,0 -15.333,6.716 -15.333,15 v 15 c 0,8.284 7.049,15 15.333,15 h 1.114 c 0.4,17.878 15.008,32.25 32.981,32.25 17.973,0 32.581,-14.372 32.981,-32.25 h 0.923 c 8.284,0 14.667,-6.716 14.667,-15 v -15 c 0,-7.946 -6,-14.433 -14,-14.949 v -5.239 l 43.122,-19.858 c 6.016,-2.782 8.805,-9.913 6.024,-15.929 z"
         inkscape:connector-curvature="0" />
    </g>
  </g>
  <g
     inkscape:groupmode="layer"
     id="layer3"
     inkscape:label="Head">
    <path
       style="fill:none;stroke:#000000;stroke-width:0.1;stroke-linecap:butt;stroke-linejoin:miter;stroke-miterlimit:4;stroke-dasharray:none;stroke-opacity:1"
       d="m 157.92141,137.87497 5.57308,44.83543 2.89936,23.27705 c 0.40834,3.78482 -2.6314,6.34718 -5.65521,6.42129 H 101.31411 L 96.047432,178.73518 55.362131,186.07257 49.683795,128.30272 31.157,125.92871 43.280633,85.177863 42.924902,85.533595"
       id="path879"
       inkscape:connector-curvature="0"
       sodipodi:nodetypes="ccccccccccc" />
  </g>
  <g
     inkscape:groupmode="layer"
     id="layer4"
     inkscape:label="Circle"
     style="display:none">
    <circle
       style="fill:#000000;fill-opacity:0.5553097;stroke-width:1.18642247"
       id="path894"
       cx="44.329643"
       cy="133.4707"
       r="5.7696977" />
    <circle
       style="fill:#ff0000;fill-opacity:0.5553097;stroke-width:1.18642247"
       id="path894-6"
       cx="160.61266"
       cy="206.63045"
       r="5.7696977" />
    <circle
       style="fill:#000000;fill-opacity:0.5553097;stroke-width:1.18642247"
       id="path894-7"
       cx="105.88933"
       cy="206.48221"
       r="5.7696977" />
    <circle
       style="fill:#000000;fill-opacity:0.5553097;stroke-width:1.18642247"
       id="path894-8"
       cx="60.4743"
       cy="178.97234"
       r="5.7696977" />
    <circle
       style="fill:#000000;fill-opacity:0.5553097;stroke-width:1.18642247"
       id="path894-2"
       cx="38.656128"
       cy="121.22529"
       r="5.7696977" />
    <circle
       style="fill:#000000;fill-opacity:0.5553097;stroke-width:1.18642247"
       id="path894-9"
       cx="91.067192"
       cy="185.37549"
       r="5.7696977" />
  </g>
</svg>
