<?xml version="1.0" encoding="UTF-8" standalone="no"?>
<!-- Created with Inkscape (http://www.inkscape.org/) -->

<svg
   xmlns:dc="http://purl.org/dc/elements/1.1/"
   xmlns:cc="http://creativecommons.org/ns#"
   xmlns:rdf="http://www.w3.org/1999/02/22-rdf-syntax-ns#"
   xmlns:svg="http://www.w3.org/2000/svg"
   xmlns="http://www.w3.org/2000/svg"
   xmlns:sodipodi="http://sodipodi.sourceforge.net/DTD/sodipodi-0.dtd"
   xmlns:inkscape="http://www.inkscape.org/namespaces/inkscape"
   version="1.1"
   id="svg3753"
   width="220"
   height="220"
   viewBox="0 0 220 220"
   sodipodi:docname="baldr.svg"
   inkscape:version="0.92.3 (2405546, 2018-03-11)">
  <metadata
     id="metadata3759">
    <rdf:RDF>
      <cc:Work
         rdf:about="">
        <dc:format>image/svg+xml</dc:format>
        <dc:type
           rdf:resource="http://purl.org/dc/dcmitype/StillImage" />
        <dc:title></dc:title>
      </cc:Work>
    </rdf:RDF>
  </metadata>
  <defs
     id="defs3757" />
  <sodipodi:namedview
     pagecolor="#ffffff"
     bordercolor="#666666"
     borderopacity="1"
     objecttolerance="10"
     gridtolerance="10"
     guidetolerance="10"
     inkscape:pageopacity="0"
     inkscape:pageshadow="2"
     inkscape:window-width="1916"
     inkscape:window-height="1033"
     id="namedview3755"
     showgrid="false"
     inkscape:zoom="2"
     inkscape:cx="16.136947"
     inkscape:cy="127.14095"
     inkscape:window-x="0"
     inkscape:window-y="22"
     inkscape:window-maximized="0"
     inkscape:current-layer="g861"
     showguides="true"
     inkscape:guide-bbox="true">
    <sodipodi:guide
       position="110.81028,131.917"
       orientation="0,1"
       id="guide876"
       inkscape:locked="false" />
    <sodipodi:guide
       position="133.99673,6.363961"
       orientation="0,1"
       id="guide900"
       inkscape:locked="false" />
  </sodipodi:namedview>
  <g
     style="display:inline;opacity:0.95999995"
     inkscape:label="Head"
     id="g861"
     inkscape:groupmode="layer">
    <path
       style="display:inline;fill:#000000;fill-opacity:1;stroke:#000000;stroke-width:0.1;stroke-linecap:butt;stroke-linejoin:miter;stroke-miterlimit:4;stroke-dasharray:none;stroke-opacity:1"
       d="M 118.83008,8.1601562 C 93.385467,8.2278168 77.794081,13.51955 63.849609,26.820312 49.849529,40.174132 44.261103,53.440697 42.091797,83.748047 l -9.804688,35.458983 c -0.817813,2.81721 0.633155,7.03809 4.964844,7.51563 L 50.5,127.875 l 2.441406,52.72656 c 0.0259,1.63984 1.513672,6.02439 7.078125,5.29883 L 95.25,178.875 l 4.490234,28.46094 c 0.129481,0.55125 1.250636,4.77058 5.972656,4.73828 h 54.94336 c 3.41727,-0.0469 5.95751,-3.1254 5.49609,-6.55274 -2.93992,-22.5491 -5.8804,-45.09738 -8.82031,-67.64648 l 5.5293,-6.99609 c 10.98391,-13.89568 16.28322,-27.82538 18.64258,-49.001957 3.29725,-29.594746 -6.04466,-53.950016 -24.94336,-65.025391 -10.97881,-6.434011 -20.96818,-8.7359757 -37.73047,-8.6914058 z m 30.96484,27.7949218 c 3.17168,-0.03021 5.76819,2.51562 5.79883,5.6875 0.0306,3.171881 -2.51562,5.768189 -5.6875,5.798828 -3.47948,0.03345 -6.95951,0.07406 -10.43945,0.115235 -5.98962,0.07084 -12.18351,0.145334 -18.28516,0.177734 -0.88457,0.0048 -1.72304,-0.192122 -2.47266,-0.544922 -1.94094,-0.913488 -3.28877,-2.88121 -3.30078,-5.169922 -0.0174,-3.171982 2.54112,-5.756504 5.71289,-5.773437 6.06462,-0.03238 12.23799,-0.105165 18.20899,-0.175782 3.4883,-0.04094 6.97723,-0.08137 10.46484,-0.115234 z m 16.17578,16.333984 c 3.17257,-0.01974 5.76002,2.535738 5.7793,5.707032 0.0204,3.172338 -2.5351,5.75979 -5.70703,5.779297 L 90.314453,64.25 c -0.886047,0.0056 -1.72717,-0.191307 -2.478515,-0.544922 -1.939217,-0.912673 -3.286052,-2.877771 -3.300782,-5.164062 -0.01951,-3.171931 2.535097,-5.759791 5.707032,-5.779297 z M 61.169922,69.246094 a 5.7696977,5.7696977 0 0 1 5.769531,5.769531 5.7696977,5.7696977 0 0 1 -5.769531,5.769531 5.7696977,5.7696977 0 0 1 -5.769531,-5.769531 5.7696977,5.7696977 0 0 1 5.769531,-5.769531 z m 20.787109,0.308594 75.732419,0.002 c 3.17068,6e-6 5.74433,2.571955 5.74414,5.74414 2e-5,3.171752 -2.57216,5.742806 -5.74414,5.742188 l -75.732419,-0.002 c -0.872901,1.92e-4 -1.70197,-0.194042 -2.443359,-0.542969 -1.950476,-0.917972 -3.300751,-2.900802 -3.300781,-5.199219 -1.9e-5,-3.171752 2.572159,-5.744762 5.74414,-5.74414 z m -8.072265,17.146484 75.730464,0.002 c 3.17221,0.0013 5.73847,2.570003 5.73829,5.742187 1e-5,3.171752 -2.58193,5.7389 -5.75391,5.738282 L 84.576172,98.171875 93.957031,112.375 c 1.107933,1.67302 1.190116,3.76905 0.335938,5.58398 l -2.804688,5.95899 8.662109,4.07617 2.62109,-5.57031 c 0.95344,-2.02583 3.06977,-3.27898 5.3086,-3.26367 l 26.39258,0.21484 c 3.172,0.0197 5.72709,2.61071 5.70507,5.7832 -0.0218,3.17206 -2.6832,5.6913 -5.85546,5.66992 l -22.72071,-0.18945 -1.06836,2.26953 c 3.35927,1.85396 4.63512,5.88513 3.01563,9.32618 l -3.05664,6.49609 c -1.68839,3.58742 -5.82274,5.19424 -9.41016,3.50586 l -0.39844,-0.1875 c -3.816971,7.66062 -13.072183,10.90726 -20.855465,7.24414 -7.783282,-3.66312 -11.181477,-12.86383 -7.710937,-20.6875 l -0.482422,-0.22656 c -3.587421,-1.68839 -5.270415,-6.03368 -3.582032,-9.6211 l 3.056641,-6.49609 c 1.688383,-3.58742 6.109845,-5.05946 9.697266,-3.3711 l 0.289062,0.13672 1.429688,-3.03711 -13.185547,-19.982418 c -0.792897,-0.984665 -1.197425,-2.199931 -1.197266,-3.5625 -4.52e-4,-3.171953 2.570207,-5.744758 5.742188,-5.74414 z m 68.083984,16.249998 c 3.17193,-0.002 5.7463,2.56767 5.74805,5.74024 0.002,3.17213 -2.56854,5.74588 -5.74024,5.74804 l -37.64062,0.0234 c -0.87461,4.5e-4 -1.70501,-0.19363 -2.44727,-0.54297 -1.949173,-0.91736 -3.297319,-2.89779 -3.298826,-5.19531 -0.002,-3.17213 2.566586,-5.74589 5.738276,-5.74805 z"
       id="path898"
       inkscape:connector-curvature="0" />
  </g>
</svg>
