<?xml version="1.0" encoding="UTF-8"?><!DOCTYPE svg PUBLIC "-//W3C//DTD SVG 1.1//EN" "http://www.w3.org/Graphics/SVG/1.1/DTD/svg11.dtd"><svg xmlns="http://www.w3.org/2000/svg" xmlns:xlink="http://www.w3.org/1999/xlink" version="1.1" width="24" height="24" viewBox="0 0 24 24"><path d="m 17.421875,3.3360368 c -0.192569,0 -0.387374,0.072921 -0.533203,0.21875 l -2.871094,2.8652344 2.804688,2.804688 1.060546,-1.054688 0.71875,0.716797 -3.177734,3.1718748 1.060547,1.060547 3.089844,-3.095703 c 0.3814,-0.3739208 0.762384,-0.7546518 0.777343,-1.1210938 0.01496,-0.3664446 -0.336348,-0.702251 -0.695312,-1.076172 -0.239309,-0.231831 -0.493143,-0.4794403 -0.470703,-0.71875 0.0075,-0.246787 0.253546,-0.4937809 0.507812,-0.7480469 0.291658,-0.291658 0.291658,-0.7779859 0,-1.0546875 l -1.75,-1.75 c -0.13835,-0.1458291 -0.328915,-0.21875 -0.521484,-0.21875 z M 13.597656,6.83799 6.4492188,13.99424 v 2.804687 H 9.2539062 L 16.402344,9.6426772 Z M 2.0214844,20.083984 v 1.927735 H 21.970703 v -1.927735 z" /></svg>
