<?xml version="1.0" encoding="UTF-8" standalone="no"?>
<svg
   xmlns:dc="http://purl.org/dc/elements/1.1/"
   xmlns:cc="http://creativecommons.org/ns#"
   xmlns:rdf="http://www.w3.org/1999/02/22-rdf-syntax-ns#"
   xmlns:svg="http://www.w3.org/2000/svg"
   xmlns="http://www.w3.org/2000/svg"
   xmlns:sodipodi="http://sodipodi.sourceforge.net/DTD/sodipodi-0.dtd"
   xmlns:inkscape="http://www.inkscape.org/namespaces/inkscape"
   id="svg8"
   version="1.1"
   viewBox="0 0 7.1759187 7.1759184"
   height="7.1759186mm"
   width="7.1759186mm"
   sodipodi:docname="showroom.svg"
   inkscape:version="0.92.5 (2060ec1f9f, 2020-04-08)">
  <sodipodi:namedview
     pagecolor="#ffffff"
     bordercolor="#666666"
     borderopacity="1"
     objecttolerance="10"
     gridtolerance="10"
     guidetolerance="10"
     inkscape:pageopacity="0"
     inkscape:pageshadow="2"
     inkscape:window-width="3796"
     inkscape:window-height="2071"
     id="namedview7"
     showgrid="false"
     inkscape:zoom="35.717711"
     inkscape:cx="-1.6399589"
     inkscape:cy="12.955901"
     inkscape:window-x="22"
     inkscape:window-y="67"
     inkscape:window-maximized="1"
     inkscape:current-layer="svg8" />
  <defs
     id="defs2" />
  <metadata
     id="metadata5">
    <rdf:RDF>
      <cc:Work
         rdf:about="">
        <dc:format>image/svg+xml</dc:format>
        <dc:type
           rdf:resource="http://purl.org/dc/dcmitype/StillImage" />
        <dc:title />
      </cc:Work>
    </rdf:RDF>
  </metadata>
  <g
     style="display:inline"
     transform="matrix(0.89365658,0,0,0.89365658,-39.288323,-110.33331)"
     id="layer1">
    <path
       style="fill:#e0585b;fill-opacity:1;stroke-width:0.34161577"
       d="m 48.370033,124.07064 c -0.850265,0.003 -1.371273,0.17909 -1.837248,0.62355 -0.467833,0.44624 -0.654579,0.88956 -0.727069,1.90232 l -0.327637,1.18492 c -0.02733,0.0941 0.02116,0.23519 0.165907,0.25115 l 0.442703,0.0385 0.08158,1.76194 c 8.78e-4,0.0548 0.05059,0.20132 0.236526,0.17707 l 1.177275,-0.23477 0.150049,0.95107 c 0.0042,0.0184 0.04179,0.15941 0.199584,0.15833 h 1.836018 c 0.114138,-9.6e-4 0.19907,-0.10445 0.183653,-0.21897 -0.09826,-0.75351 -0.1965,-1.50699 -0.294743,-2.26051 l 0.184776,-0.23377 c 0.367035,-0.46435 0.544128,-0.92984 0.622965,-1.63747 0.110135,-0.98896 -0.201987,-1.80283 -0.833525,-2.17292 -0.366866,-0.21501 -0.700679,-0.29194 -1.260817,-0.29043 z m 1.034737,0.9288 c 0.106003,-9.6e-4 0.192756,0.0841 0.193776,0.19005 0.0011,0.10601 -0.08405,0.19277 -0.190057,0.19378 -0.116203,9.6e-4 -0.232561,0.003 -0.348842,0.004 -0.200154,0.003 -0.407137,0.005 -0.611035,0.007 -0.02956,1.7e-4 -0.05758,-0.007 -0.08263,-0.0182 -0.06482,-0.0305 -0.109876,-0.0963 -0.110263,-0.17276 -5.46e-4,-0.106 0.08496,-0.19237 0.190909,-0.19293 0.202658,-9.6e-4 0.408945,-0.004 0.608478,-0.007 0.116591,-9.6e-4 0.233155,-0.003 0.349694,-0.004 z m 0.540538,0.54583 c 0.106004,-6.5e-4 0.192484,0.0847 0.19313,0.19071 6.72e-4,0.106 -0.0847,0.19247 -0.190715,0.19312 l -2.530578,0.0159 c -0.0296,1.8e-4 -0.05772,-0.007 -0.08283,-0.0182 -0.0648,-0.0305 -0.109812,-0.0962 -0.110302,-0.17257 -6.53e-4,-0.10601 0.08471,-0.19247 0.190708,-0.19312 z m -3.502069,0.56663 a 0.19280277,0.19280277 0 0 1 0.192797,0.19281 0.19280277,0.19280277 0 0 1 -0.192797,0.19279 0.19280277,0.19280277 0 0 1 -0.192797,-0.19279 0.19280277,0.19280277 0 0 1 0.192797,-0.19281 z m 0.694631,0.0104 2.530707,7e-5 c 0.106003,0 0.191955,0.086 0.191955,0.19194 0,0.10601 -0.08599,0.19191 -0.191955,0.19189 l -2.530707,-8e-5 c -0.02917,2e-5 -0.05687,-0.007 -0.08165,-0.018 -0.06518,-0.0307 -0.110303,-0.097 -0.110303,-0.17374 0,-0.10601 0.08595,-0.19197 0.191949,-0.19196 z m -0.269746,0.57297 2.530642,7e-5 c 0.106003,4e-5 0.191761,0.0859 0.191749,0.19188 0,0.106 -0.08625,0.19177 -0.192265,0.19176 l -2.172857,-4.1e-4 0.313475,0.47461 c 0.03703,0.0559 0.03976,0.12601 0.01124,0.18659 l -0.09372,0.19914 0.289457,0.13621 0.08759,-0.18614 c 0.03187,-0.0677 0.102581,-0.10962 0.177394,-0.1091 l 0.88195,0.008 c 0.106003,6.4e-4 0.191373,0.0873 0.190637,0.19326 -7.48e-4,0.106 -0.08961,0.19017 -0.195673,0.18946 l -0.759239,-0.007 -0.0357,0.0758 c 0.112253,0.062 0.15489,0.19665 0.100775,0.31164 l -0.102143,0.21708 c -0.05642,0.11981 -0.194576,0.17357 -0.314454,0.11711 l -0.01331,-0.007 c -0.127539,0.25601 -0.436822,0.36451 -0.696912,0.24209 -0.26009,-0.1224 -0.373645,-0.42986 -0.257671,-0.6913 l -0.01613,-0.008 c -0.119883,-0.0564 -0.176118,-0.2016 -0.119701,-0.32149 l 0.102142,-0.21706 c 0.05642,-0.11983 0.204169,-0.16908 0.324048,-0.11259 l 0.0097,0.005 0.04777,-0.10149 -0.440613,-0.66774 c -0.02649,-0.0329 -0.04001,-0.0735 -0.04001,-0.11904 -1.5e-5,-0.10601 0.08589,-0.19197 0.191884,-0.19195 z m 2.275125,0.54302 c 0.106002,-7e-5 0.192019,0.0859 0.192084,0.19181 6.4e-5,0.10601 -0.08586,0.19202 -0.191826,0.19209 l -1.257813,7.9e-4 c -0.02923,0 -0.05698,-0.007 -0.08179,-0.0182 -0.06514,-0.0306 -0.110186,-0.0968 -0.110238,-0.17363 -7e-5,-0.10599 0.08577,-0.192 0.191752,-0.19207 z"
       id="path815"
       inkscape:connector-curvature="0" />
  </g>
</svg>
