<?xml version="1.0" encoding="UTF-8"?><!DOCTYPE svg PUBLIC "-//W3C//DTD SVG 1.1//EN" "http://www.w3.org/Graphics/SVG/1.1/DTD/svg11.dtd"><svg xmlns="http://www.w3.org/2000/svg" xmlns:xlink="http://www.w3.org/1999/xlink" version="1.1" width="24" height="24" viewBox="0 0 24 24"><path d="M 13.146191,2.0267077 C 10.65723,2.033313 9.1320984,2.5509571 7.7680669,3.852022 6.3985962,5.1582766 5.8519424,6.4559963 5.6397441,9.4206247 L 4.680661,12.889179 c -0.079998,0.275576 0.061935,0.688457 0.4856553,0.735171 l 1.2959078,0.112719 0.2388154,5.157649 c 0.00257,0.160408 0.1480655,0.5893 0.6923737,0.518326 l 3.4462018,-0.687215 0.43923,2.784015 c 0.01267,0.05392 0.122335,0.466652 0.584238,0.463492 h 5.374493 c 0.334273,-0.0046 0.582756,-0.305722 0.537621,-0.640981 -0.28758,-2.205726 -0.575214,-4.411372 -0.862792,-6.617097 l 0.540869,-0.684349 C 18.527706,12.671651 19.046079,11.309063 19.276869,9.2375961 19.599402,6.3426739 18.685588,3.9602708 16.83694,2.876891 15.763005,2.2475237 14.785857,2.0223482 13.146191,2.0267077 Z m 3.028943,2.7188657 c 0.31025,-0.00293 0.564236,0.2460753 0.567234,0.5563446 0.0031,0.3102697 -0.246075,0.5642377 -0.556345,0.5672343 -0.340358,0.0033 -0.68077,0.00726 -1.021173,0.011273 -0.585898,0.0069 -1.191777,0.014216 -1.788633,0.017387 -0.08653,4.77e-4 -0.168545,-0.018796 -0.241872,-0.053305 -0.189861,-0.089356 -0.321704,-0.2818359 -0.322879,-0.5057153 -0.0016,-0.3102793 0.248569,-0.5630943 0.558828,-0.5647508 0.593234,-0.00315 1.197106,-0.010293 1.781182,-0.017196 0.34122,-0.00403 0.682503,-0.00796 1.023658,-0.011273 z m 1.582295,1.5977713 c 0.310337,-0.00191 0.563438,0.2480422 0.565324,0.5582548 0.002,0.3103147 -0.24798,0.5634159 -0.558255,0.565324 l -7.407672,0.046428 c -0.08667,5.447e-4 -0.16895,-0.018715 -0.242445,-0.053304 C 9.9246889,7.3707704 9.7929429,7.1785473 9.7915022,6.9549042 9.789594,6.6446299 10.039482,6.3914884 10.349757,6.3895809 Z M 7.5059428,8.0020614 A 0.56438488,0.56438488 0 0 1 8.070312,8.5664298 0.56438488,0.56438488 0 0 1 7.5059428,9.1307982 0.56438488,0.56438488 0 0 1 6.9415744,8.5664298 0.56438488,0.56438488 0 0 1 7.5059428,8.0020614 Z m 2.0333705,0.030186 7.4080527,2.04e-4 c 0.310153,7e-7 0.561905,0.2515856 0.561886,0.5618848 2e-6,0.3102567 -0.251606,0.5617542 -0.561886,0.561694 L 9.5393133,9.1558263 C 9.4539268,9.1558448 9.3728287,9.1368472 9.3003063,9.1027126 9.1095135,9.0129182 8.9774314,8.8189599 8.9774284,8.5941316 8.9774263,8.2838743 9.229034,8.0321859 9.5393133,8.0322474 Z M 8.7496938,9.709496 16.157556,9.7097 c 0.310303,1.299e-4 0.561331,0.2513948 0.561313,0.561694 10e-7,0.310257 -0.252561,0.561372 -0.562839,0.561311 l -6.3605155,-0.0012 0.9176245,1.389335 c 0.108377,0.163653 0.116416,0.368684 0.03286,0.546217 l -0.274352,0.582901 0.847317,0.398727 0.256392,-0.544881 c 0.09326,-0.198164 0.300282,-0.320746 0.519281,-0.319248 l 2.58169,0.02101 c 0.310281,0.0019 0.560217,0.255377 0.558063,0.565705 -0.0022,0.310288 -0.262467,0.556717 -0.572774,0.554625 l -2.222512,-0.01854 -0.104501,0.222003 c 0.3286,0.181351 0.453401,0.575676 0.294985,0.912276 l -0.298996,0.635439 c -0.165157,0.350918 -0.569574,0.508095 -0.920491,0.342939 l -0.03898,-0.01834 C 10.99775,16.851054 10.092415,17.168635 9.3310635,16.810314 8.5697124,16.451992 8.2373053,15.55199 8.5767896,14.786687 l -0.047191,-0.02217 c -0.3509152,-0.16515 -0.515543,-0.5902 -0.3503875,-0.941118 L 8.4782079,13.18796 c 0.1651555,-0.350918 0.5976576,-0.494911 0.948575,-0.329757 l 0.028277,0.01337 0.13985,-0.297087 L 8.3051157,10.61983 C 8.2275557,10.52351 8.1879853,10.40464 8.1880008,10.271354 8.1879568,9.9610774 8.4394154,9.7094089 8.7496948,9.7094698 Z m 6.6598922,1.589555 c 0.310275,-2.04e-4 0.562097,0.251166 0.562269,0.561504 2.04e-4,0.310294 -0.251252,0.562055 -0.561504,0.562266 l -3.68196,0.0023 c -0.08555,2.8e-5 -0.166782,-0.01896 -0.239388,-0.05313 -0.190667,-0.08974 -0.32254,-0.283457 -0.322687,-0.508198 -2.05e-4,-0.310294 0.25106,-0.562056 0.56131,-0.562267 z"/></svg>