<?xml version="1.0" encoding="UTF-8" standalone="no"?>
<svg
   xmlns:dc="http://purl.org/dc/elements/1.1/"
   xmlns:cc="http://creativecommons.org/ns#"
   xmlns:rdf="http://www.w3.org/1999/02/22-rdf-syntax-ns#"
   xmlns:svg="http://www.w3.org/2000/svg"
   xmlns="http://www.w3.org/2000/svg"
   id="svg16"
   xml:space="preserve"
   enable-background="new 0 0 24.00 24.00"
   viewBox="0 0 24.00 24.00"
   height="24"
   width="24"
   version="1.1"><metadata
   id="metadata22"><rdf:RDF><cc:Work
       rdf:about=""><dc:format>image/svg+xml</dc:format><dc:type
         rdf:resource="http://purl.org/dc/dcmitype/StillImage" /><dc:title></dc:title></cc:Work></rdf:RDF></metadata><defs
   id="defs20" />
	
	
	
	
	
	
	
<g
   style="display:inline"
   id="layer1"><path
     id="path2-6"
     d="M 4.8150513,3.3091228 A 0.39508934,0.39508934 0 0 0 4.4940734,3.7041723 V 4.2720568 L 2.6299318,3.7165181 a 0.39508934,0.39508934 0 0 0 -0.1481435,-0.012351 0.39508934,0.39508934 0 0 0 -0.037032,0 0.39508934,0.39508934 0 0 0 -0.3209774,0.3950506 V 19.90121 a 0.39508934,0.39508934 0 0 0 0.506157,0.382705 l 1.8641415,-0.555538 v 0.567883 a 0.39508934,0.39508934 0 0 0 0.3950499,0.395051 H 19.110917 a 0.39508934,0.39508934 0 0 0 0.39505,-0.395046 v -0.567883 l 1.864142,0.555539 a 0.39508934,0.39508934 0 0 0 0.506157,-0.382705 V 4.099223 a 0.39508934,0.39508934 0 0 0 -0.444431,-0.3950507 0.39508934,0.39508934 0 0 0 -0.06172,0.012351 L 19.50597,4.272062 V 3.7041776 A 0.39508934,0.39508934 0 0 0 19.110917,3.3091228 H 4.8891233 a 0.39508934,0.39508934 0 0 0 -0.037036,0 0.39508934,0.39508934 0 0 0 -0.037036,0 z M 5.284173,4.099223 H 18.715867 V 4.5066172 L 17.456646,4.8893221 H 6.5433943 L 5.284173,4.5066172 Z M 2.913874,4.6300703 6.0742726,5.5806597 V 9.9755884 L 2.913874,9.6669563 Z m 18.172293,0 v 5.036886 L 17.925768,9.9755884 V 5.5806597 Z M 6.8643723,5.6794223 H 17.135668 V 18.321016 H 6.8643723 Z M 2.913874,10.4694 6.0742726,10.778033 v 7.641746 L 2.913874,19.370367 Z m 18.172293,0 v 8.900967 L 17.925768,18.419779 V 10.778033 Z M 6.5433943,19.111117 H 17.456646 l 1.259221,0.382703 v 0.407396 H 5.284173 V 19.49382 Z"
     style="line-height:normal;-inkscape-font-specification:'Bitstream Vera Sans';text-indent:0;text-align:start;text-transform:none;stroke-width:0.39504984" /></g></svg>