<?xml version="1.0" encoding="UTF-8" standalone="no"?>
<svg
   xmlns:dc="http://purl.org/dc/elements/1.1/"
   xmlns:cc="http://creativecommons.org/ns#"
   xmlns:rdf="http://www.w3.org/1999/02/22-rdf-syntax-ns#"
   xmlns:svg="http://www.w3.org/2000/svg"
   xmlns="http://www.w3.org/2000/svg"
   id="svg16"
   xml:space="preserve"
   enable-background="new 0 0 24.00 24.00"
   viewBox="0 0 24.00 24.00"
   height="24"
   width="24"
   version="1.1"><metadata
   id="metadata22"><rdf:RDF><cc:Work
       rdf:about=""><dc:format>image/svg+xml</dc:format><dc:type
         rdf:resource="http://purl.org/dc/dcmitype/StillImage" /><dc:title></dc:title></cc:Work></rdf:RDF></metadata><defs
   id="defs20" />
	
	
	
	
	
	
	
<path
   d="m 20.932586,17.590379 1.141547,2.572159 h -0.68861 l -0.211739,-0.508171 h -1.150749 l -0.191485,0.508171 h -0.679403 l 1.036596,-2.572159 h 0.743843 m 0.05155,1.614733 -0.414267,-0.999771 -0.377449,0.999771 h 0.791716 m -1.495053,-1.614733 v 0.471346 h -0.931648 v 2.100813 H 17.916698 V 18.061725 H 16.98505 v -0.471346 h 2.504033 m -3.314162,0 1.141543,2.572159 H 16.627858 L 16.416119,19.654367 H 15.26537 l -0.191486,0.508171 h -0.679403 l 1.036595,-2.572159 h 0.743848 m 0.05155,1.614733 -0.41427,-0.999771 -0.377446,0.999771 h 0.791716 m -4.380221,-1.614733 h 1.134181 c 0.438204,4e-6 0.78435,0.120294 1.038438,0.360874 0.255309,0.23936 0.382967,0.549295 0.38297,0.929808 -3e-6,0.398928 -0.129502,0.712547 -0.388495,0.940853 -0.257769,0.227081 -0.626009,0.340624 -1.10472,0.340624 h -1.062374 v -2.572159 m 0.640739,0.471346 v 1.629464 h 0.417953 c 0.271269,0 0.478712,-0.07426 0.622325,-0.222786 0.143614,-0.14975 0.21542,-0.346756 0.215422,-0.591024 -2e-6,-0.252857 -0.07304,-0.451708 -0.219103,-0.59655 -0.144843,-0.146065 -0.353514,-0.219101 -0.62601,-0.219104 h -0.410587 m -1.233604,-0.471346 v 2.572159 h -0.640737 v -2.572159 h 0.640737 m -1.213351,0 -0.8377466,1.207827 1.1360196,1.364332 H 9.5355524 L 8.5173691,18.956551 v 1.205987 H 7.8766288 v -2.572159 h 0.6407404 v 1.158114 l 0.8174914,-1.158114 h 0.7051804 m -2.7562775,0 v 2.572159 H 6.6430263 V 17.590379 H 7.2837635 M 4.1279431,18.518346 3.3325459,20.195678 H 3.0563663 L 1.925867,17.590379 h 0.6794035 l 0.6057558,1.421407 0.6609903,-1.421407 h 0.5155369 l 0.6609903,1.421407 0.602075,-1.421407 H 6.3300224 L 5.2032038,20.195678 H 4.9270253 L 4.1279431,18.518346"
   style="font-family:'Gill Sans MT';fill:#000000;fill-opacity:1;stroke:none;stroke-width:0.02480778"
   id="path8-3" /><g
   id="layer2"
   style="display:inline"
   transform="matrix(1.0819114,0,0,1.0819114,-0.91590315,-0.23467067)"><path
     id="rect4534"
     transform="matrix(0.9242901,0,0,0.9242901,0.84656022,0.21690378)"
     d="M 6.3847656 3.8046875 L 6.3847656 16.242188 L 8.6386719 16.242188 L 8.6386719 3.8046875 L 6.3847656 3.8046875 z M 10.845703 3.8046875 L 10.845703 16.242188 L 11.605469 16.242188 L 11.605469 3.8046875 L 10.845703 3.8046875 z M 15.259766 3.8046875 L 15.259766 16.208984 L 16.03125 16.208984 L 16.03125 3.8046875 L 15.259766 3.8046875 z M 16.753906 3.8046875 L 16.753906 16.242188 L 19.009766 16.242188 L 19.009766 3.8046875 L 16.753906 3.8046875 z M 1.984375 3.8378906 L 1.984375 16.242188 L 2.7070312 16.242188 L 2.7070312 3.8378906 L 1.984375 3.8378906 z M 3.4765625 3.8378906 L 3.4765625 16.207031 L 5.6621094 16.207031 L 5.6621094 3.8378906 L 3.4765625 3.8378906 z M 9.3867188 3.8378906 L 9.3867188 16.208984 L 10.074219 16.208984 L 10.074219 3.8378906 L 9.3867188 3.8378906 z M 12.353516 3.8378906 L 12.353516 16.242188 L 14.572266 16.242188 L 14.572266 3.8378906 L 12.353516 3.8378906 z M 19.832031 3.8378906 L 19.832031 16.242188 L 20.558594 16.242188 L 20.558594 3.8378906 L 19.832031 3.8378906 z M 21.328125 3.8378906 L 21.328125 16.242188 L 22.050781 16.242188 L 22.050781 3.8378906 L 21.328125 3.8378906 z "
     style="fill:#000000;stroke-width:1.08191144" /></g></svg>