<?xml version="1.0" encoding="UTF-8" standalone="no"?>
<svg
   xmlns:dc="http://purl.org/dc/elements/1.1/"
   xmlns:cc="http://creativecommons.org/ns#"
   xmlns:rdf="http://www.w3.org/1999/02/22-rdf-syntax-ns#"
   xmlns:svg="http://www.w3.org/2000/svg"
   xmlns="http://www.w3.org/2000/svg"
   id="svg10"
   height="24"
   width="24"
   viewBox="0 0 24.00 24.00"
   version="1.2">
  <metadata
     id="metadata16">
    <rdf:RDF>
      <cc:Work
         rdf:about="">
        <dc:format>image/svg+xml</dc:format>
        <dc:type
           rdf:resource="http://purl.org/dc/dcmitype/StillImage" />
        <dc:title></dc:title>
      </cc:Work>
    </rdf:RDF>
  </metadata>
  <defs
     id="defs14" />
  <path
     id="path8"
     style="font-family:'Gill Sans MT';fill:#000000;fill-opacity:1;stroke:none;stroke-width:0.02292958"
     d="m 20.194342,16.475518 1.05512,2.377421 h -0.636475 l -0.195708,-0.469698 h -1.063626 l -0.176988,0.469698 H 18.5487 l 0.958115,-2.377421 h 0.687527 m 0.04765,1.492481 -0.382903,-0.924078 -0.348873,0.924078 h 0.731776 m -1.381863,-1.492481 v 0.43566 h -0.861113 v 1.941761 h -0.592227 v -1.941761 h -0.861113 v -0.43566 h 2.314453 m -3.063247,0 1.055117,2.377421 H 16.215524 L 16.019816,18.383241 H 14.95619 l -0.176988,0.469698 h -0.627966 l 0.958115,-2.377421 h 0.687531 m 0.04765,1.492481 -0.382906,-0.924078 -0.348869,0.924078 h 0.731775 m -4.048595,-1.492481 h 1.048312 c 0.405028,3e-6 0.724967,0.111186 0.959818,0.333552 0.23598,0.221238 0.353973,0.507708 0.353976,0.859412 -3e-6,0.368725 -0.119698,0.6586 -0.359082,0.869621 -0.238254,0.209889 -0.578614,0.314836 -1.021082,0.314836 h -0.981942 v -2.377421 m 0.592229,0.43566 v 1.506097 h 0.38631 c 0.250731,0 0.442468,-0.06864 0.575208,-0.205918 0.132741,-0.138413 0.199111,-0.320504 0.199113,-0.546278 -2e-6,-0.233713 -0.06751,-0.417509 -0.202515,-0.551385 -0.133877,-0.135007 -0.326749,-0.202513 -0.578615,-0.202516 h -0.379501 m -1.140208,-0.43566 v 2.377421 h -0.592227 v -2.377421 h 0.592227 m -1.121489,0 L 9.3521486,17.5919 10.40216,18.852939 H 9.6601767 L 8.71908,17.738257 v 1.114682 H 8.1268501 V 16.475518 H 8.71908 v 1.070433 L 9.4746791,16.475518 H 10.12647 m -2.5475995,0 v 2.377421 h -0.592227 v -2.377421 h 0.592227 m -2.9168934,0.85771 -0.7351778,1.550342 h -0.25527 L 2.62662,16.475518 H 3.2545859 L 3.81448,17.78931 4.4254268,16.475518 h 0.4765056 l 0.6109468,1.313792 0.5564919,-1.313792 h 0.627966 L 5.6558299,18.88357 H 5.4005608 L 4.6619771,17.333228" />
  <g
     style="display:none"
     id="layer1" />
  <g
     style="display:inline"
     id="layer2">
    <rect
       y="3.7644508"
       x="2.6799159"
       height="11.464844"
       width="0.66796869"
       id="rect4534"
       style="fill:#000000" />
    <rect
       y="3.7644508"
       x="4.0607758"
       height="11.431641"
       width="2.0195312"
       id="rect4536"
       style="fill:#000000" />
    <rect
       y="3.7332008"
       x="6.7482777"
       height="11.496094"
       width="2.0820312"
       id="rect4538"
       style="fill:#000000" />
    <rect
       y="3.7644508"
       x="9.5217152"
       height="11.433594"
       width="0.63671881"
       id="rect4540"
       style="fill:#000000" />
    <rect
       y="3.7332008"
       x="10.871325"
       height="11.496094"
       width="0.70117199"
       id="rect4542"
       style="fill:#000000" />
    <rect
       y="3.7644508"
       x="12.263902"
       height="11.464844"
       width="2.050786"
       id="rect4544"
       style="fill:#000000" />
    <rect
       y="3.7332008"
       x="14.951402"
       height="11.464844"
       width="0.71289098"
       id="rect4546"
       style="fill:#000000" />
    <rect
       y="3.7332008"
       x="16.332253"
       height="11.496094"
       width="2.0839839"
       id="rect4548"
       style="fill:#000000" />
    <rect
       y="3.7644508"
       x="19.177956"
       height="11.464844"
       width="0.66992599"
       id="rect4550"
       style="fill:#000000" />
    <rect
       y="3.7644508"
       x="20.560768"
       height="11.464844"
       width="0.66796899"
       id="rect4552"
       style="fill:#000000" />
  </g>
</svg>
