<?xml version="1.0" encoding="UTF-8"?><!DOCTYPE svg PUBLIC "-//W3C//DTD SVG 1.1//EN" "http://www.w3.org/Graphics/SVG/1.1/DTD/svg11.dtd"><svg xmlns="http://www.w3.org/2000/svg" xmlns:xlink="http://www.w3.org/1999/xlink" version="1.1" width="24" height="24" viewBox="0 0 24 24"><path d="M 4.5585938 1.5292969 L 3.2929688 2.8105469 L 3.9355469 3.453125 C 3.7425468 3.5924944 3.5650276 3.7524635 3.4277344 3.9472656 C 3.2127431 4.2620334 3.0905499 4.6537543 3.0800781 5.0742188 L 3.1171875 9.0664062 C 3.1256575 10.17777 4.0418208 11.070288 5.1308594 11.060547 L 8.125 11.048828 C 9.0587412 11.053228 9.8207429 10.419421 10.046875 9.5644531 L 18.919922 18.4375 L 18.919922 20.951172 L 20.919922 20.951172 L 20.919922 20.4375 L 21.707031 21.224609 L 22.974609 19.945312 L 20.919922 17.890625 L 18.919922 15.890625 L 10.105469 7.0761719 L 6.0898438 3.0605469 L 4.5585938 1.5292969 z M 10.582031 5.0097656 L 12.582031 7.0097656 L 18.919922 7.0097656 L 18.919922 13.347656 L 20.919922 15.347656 L 20.919922 7.0097656 C 20.919922 5.9051956 20.024521 5.0097656 18.919922 5.0097656 L 10.582031 5.0097656 z M 8.6308594 12.375 L 4.6347656 12.390625 L 3.1425781 16.400391 L 4.6445312 16.392578 L 8.640625 16.378906 L 10.140625 16.375 L 8.6308594 12.375 z" /></svg>