<?xml version="1.0" encoding="UTF-8"?><!DOCTYPE svg PUBLIC "-//W3C//DTD SVG 1.1//EN" "http://www.w3.org/Graphics/SVG/1.1/DTD/svg11.dtd"><svg xmlns="http://www.w3.org/2000/svg" xmlns:xlink="http://www.w3.org/1999/xlink" version="1.1" width="24" height="24" viewBox="0 0 24 24"><path d="M 11.988281 2.3476562 C 11.953831 2.3461563 11.922417 2.3474556 11.898438 2.3535156 C 11.722697 2.3934556 4.4689606 6.5084381 3.8378906 6.9238281 L 3.5429688 7.1152344 L 3.5585938 12.003906 L 3.5820312 16.892578 L 6.1796875 18.402344 C 7.6095775 19.233134 9.4543862 20.303903 10.285156 20.783203 C 11.115936 21.262503 11.84233 21.654297 11.90625 21.654297 C 12.08997 21.654297 12.69805 21.318636 16.125 19.353516 C 17.93036 18.315036 19.582961 17.371961 19.806641 17.244141 C 20.038281 17.116321 20.254804 16.971926 20.302734 16.916016 C 20.342674 16.860086 20.397737 14.927261 20.429688 12.019531 C 20.477608 7.5061692 20.469597 7.2114454 20.341797 7.0996094 C 20.198017 6.9797854 12.857121 2.7050192 12.337891 2.4414062 C 12.230041 2.3874852 12.091621 2.3521492 11.988281 2.3476562 z M 12.056641 6.2832031 C 12.344861 6.2858631 12.620706 6.3282324 12.816406 6.4121094 C 13.239796 6.5958394 13.727679 7.0666799 13.943359 7.4980469 C 14.119099 7.8655069 14.126953 7.9298477 14.126953 10.230469 L 14.126953 12.585938 L 13.886719 13.017578 C 13.607119 13.520828 13.233561 13.857641 12.738281 14.025391 C 11.827621 14.336931 10.699471 14.000023 10.244141 13.289062 C 9.8447306 12.665982 9.8377131 12.651426 9.8457031 10.207031 C 9.8537031 8.1380693 9.8700594 7.858066 10.005859 7.5625 C 10.213549 7.083204 10.595796 6.6824799 11.035156 6.4667969 C 11.295766 6.3409819 11.686091 6.2797981 12.056641 6.2832031 z M 11.970703 7.0351562 C 11.611233 7.0351562 11.331959 7.179414 10.980469 7.546875 C 10.748819 7.786523 10.72462 7.849278 10.8125 7.953125 C 10.86843 8.017031 10.988134 8.0742188 11.083984 8.0742188 C 11.307654 8.0742188 11.451172 8.2177332 11.451172 8.4414062 C 11.451172 8.6730653 11.307091 8.7766398 10.931641 8.8085938 C 10.636071 8.8325568 10.613281 8.8485956 10.613281 9.0722656 C 10.613281 9.2879496 10.643538 9.3112645 10.955078 9.3671875 C 11.402428 9.4390785 11.451172 9.478403 11.451172 9.75 C 11.451172 10.021597 11.363001 10.086481 10.931641 10.150391 C 10.612101 10.190331 10.501629 10.334036 10.605469 10.597656 C 10.645419 10.693506 10.867968 10.709329 11.986328 10.693359 L 13.328125 10.669922 L 13.328125 10.429688 C 13.328125 10.206022 13.303915 10.190508 12.984375 10.142578 C 12.632895 10.094648 12.490234 9.9818365 12.490234 9.7421875 C 12.490234 9.5584505 12.650108 9.4470635 13.017578 9.3671875 C 13.297158 9.3112645 13.328125 9.2799656 13.328125 9.0722656 C 13.328125 8.8485956 13.30425 8.8329097 12.96875 8.7929688 C 12.67317 8.7610157 12.601029 8.7208404 12.537109 8.5371094 C 12.449249 8.2814864 12.586157 8.0742188 12.841797 8.0742188 C 12.937657 8.0742188 13.080444 8.0244925 13.152344 7.9765625 C 13.280154 7.8807025 13.272321 7.8495485 13.056641 7.5859375 C 12.769061 7.2344525 12.370103 7.0351563 11.970703 7.0351562 z M 8.4160156 11.189453 C 8.5438356 11.189453 8.671175 11.229424 8.703125 11.277344 C 8.735075 11.333264 8.7903056 11.700357 8.8222656 12.091797 C 8.9420856 13.385897 9.6142394 14.367301 10.724609 14.894531 C 11.187919 15.110201 11.339456 15.134588 11.978516 15.142578 C 12.649536 15.142578 12.737518 15.127424 13.304688 14.839844 C 14.415047 14.296654 14.982808 13.448919 15.142578 12.130859 C 15.230438 11.324039 15.293021 11.189453 15.556641 11.189453 C 15.836221 11.189453 15.923828 11.34776 15.923828 11.875 C 15.923828 13.64837 14.949233 15.094259 13.351562 15.693359 L 12.849609 15.886719 L 12.849609 16.388672 L 12.849609 16.900391 L 13.6875 16.980469 L 14.527344 17.060547 L 14.550781 17.404297 L 14.574219 17.738281 L 11.978516 17.738281 L 9.375 17.738281 L 9.375 17.484375 C 9.375 17.340595 9.40553 17.180742 9.4375 17.132812 C 9.46945 17.084893 9.8536287 17.012626 10.292969 16.972656 L 11.091797 16.900391 L 11.115234 16.396484 C 11.139204 15.941144 11.124506 15.885653 10.972656 15.845703 C 10.876786 15.821743 10.565091 15.686759 10.269531 15.542969 C 8.9514512 14.903909 8.1766481 13.737575 8.0488281 12.171875 C 7.9849281 11.412995 8.0645256 11.189453 8.4160156 11.189453 z "/></svg>
