<?xml version="1.0" encoding="UTF-8"?><!DOCTYPE svg PUBLIC "-//W3C//DTD SVG 1.1//EN" "http://www.w3.org/Graphics/SVG/1.1/DTD/svg11.dtd"><svg xmlns="http://www.w3.org/2000/svg" xmlns:xlink="http://www.w3.org/1999/xlink" version="1.1" width="24" height="24" viewBox="0 0 24 24"><path d="m 11.976562,2.1992188 c -0.01282,5.367e-4 -0.02368,0.0019 -0.03516,0.00391 -0.223143,0.045948 -0.452489,0.1445262 -0.695312,0.3085938 -0.105015,0.072177 -0.32171,0.1966447 -0.472656,0.2753906 -0.150939,0.085323 -0.446242,0.2561661 -0.65625,0.3808594 C 9.9071833,3.2926542 9.722815,3.3984375 9.703125,3.3984375 9.683405,3.4050975 9.5248553,3.4970813 9.3476562,3.6152344 9.1639072,3.7333626 9.001565,3.8242188 8.96875,3.8242188 c -0.02626,0 -0.177179,0.086392 -0.328125,0.1914062 -0.157521,0.1050138 -0.3025766,0.177177 -0.3222656,0.1640625 -0.02626,-0.013065 -0.07908,0.019809 -0.125,0.072266 -0.04595,0.052507 -0.1046314,0.097656 -0.1308594,0.097656 -0.03281,0 -0.177176,0.078605 -0.328125,0.1835937 -0.150938,0.098432 -0.2960116,0.1777344 -0.3222656,0.1777344 -0.01972,0 -0.1247571,0.064523 -0.2363282,0.1367187 -0.196888,0.1378195 -0.6303861,0.382109 -0.6894531,0.3886719 -0.01972,0 -0.1169456,0.057965 -0.2285156,0.1367188 -0.105014,0.078753 -0.775591,0.4661532 -1.484375,0.8730469 l -1.2851563,0.734375 -0.039062,1.1894531 c -0.02626,0.6562807 -0.046875,2.8806851 -0.046875,4.9414061 v 3.753906 L 3.75,17.082031 c 0.183749,0.124693 0.3624209,0.215547 0.3886719,0.208985 0.01972,-0.0066 0.077812,0.03343 0.1171875,0.08594 0.04592,0.0525 0.1188361,0.09766 0.1582031,0.09766 0.03937,0 0.1954678,0.08711 0.3398437,0.185547 0.3740791,0.242823 0.907185,0.5625 0.953125,0.5625 0.06562,0.0066 1.1350727,0.644293 1.2597657,0.75586 0.06562,0.0525 0.1513156,0.104766 0.1972656,0.111328 0.06562,0.01311 0.3863657,0.190524 1.2460937,0.708984 0.1181281,0.06563 0.3417904,0.197182 0.5058594,0.289063 0.164077,0.09188 0.5180354,0.295616 0.7871094,0.453125 0.623466,0.367517 0.571293,0.333727 1.345703,0.773437 0.360955,0.203449 0.701405,0.39492 0.753906,0.427735 0.0525,0.03281 0.132507,0.05859 0.171875,0.05859 0.09187,0.0066 0.687762,-0.302157 1.796875,-0.945312 0.485651,-0.282209 0.958903,-0.551012 1.050782,-0.603516 0.09187,-0.0525 0.2814,-0.163979 0.425781,-0.255859 0.144382,-0.09188 0.353977,-0.204606 0.458984,-0.263672 0.111571,-0.0525 0.289528,-0.157027 0.394531,-0.222656 0.111571,-0.07219 0.314603,-0.190777 0.458985,-0.269532 0.387206,-0.203446 0.53226,-0.282418 0.650391,-0.380859 0.05907,-0.04594 0.105468,-0.06531 0.105468,-0.03906 0,0.02625 0.04445,0.0069 0.103516,-0.03906 0.118127,-0.09844 0.303348,-0.209289 0.552734,-0.333984 0.09187,-0.04594 0.26273,-0.151011 0.38086,-0.236328 0.111571,-0.09188 0.208984,-0.138831 0.208984,-0.119141 0,0.02625 0.105784,-0.03242 0.230469,-0.130859 0.124686,-0.09188 0.228515,-0.150546 0.228515,-0.13086 0,0.02626 0.105784,-0.03241 0.230469,-0.130859 0.124686,-0.09188 0.230469,-0.152502 0.230469,-0.132813 0,0.02625 0.110944,-0.03828 0.242187,-0.136718 0.131267,-0.09844 0.242188,-0.171331 0.242188,-0.158204 0.0067,0.01969 0.12444,-0.05265 0.275391,-0.144531 l 0.269531,-0.183594 0.03906,-1.1875 c 0.02626,-0.656281 0.04687,-2.880686 0.04687,-4.941406 V 7.0605469 L 20.333984,6.8828125 c -0.144382,-0.09188 -0.275233,-0.1699219 -0.294922,-0.1699219 -0.01972,0 -0.216309,-0.1192904 -0.439453,-0.2636718 -0.21656,-0.1509439 -0.491947,-0.3068726 -0.603515,-0.359375 -0.111571,-0.052502 -0.322415,-0.1646845 -0.466797,-0.25 C 18.384915,5.7545288 18.156646,5.6236756 18.025391,5.5449219 17.894124,5.4727309 17.657509,5.3269568 17.5,5.2285156 17.342505,5.1300736 17.205236,5.0520315 17.185547,5.0585938 c -0.01972,0 -0.132571,-0.072887 -0.244141,-0.1582032 -0.11813,-0.091878 -0.216797,-0.1434409 -0.216797,-0.1171875 0,0.019697 -0.04518,0.00694 -0.09766,-0.039063 C 16.528519,4.6653806 16.259078,4.5012657 15.9375,4.34375 15.845625,4.2978 15.642586,4.1655583 15.478516,4.0605469 15.314438,3.948976 15.170077,3.8574219 15.150391,3.8574219 15.111024,3.8507619 14.691033,3.6150199 14.330078,3.3984375 14.185697,3.3131195 13.994224,3.2021753 13.902344,3.15625 13.810469,3.110302 13.535245,2.9451705 13.279297,2.8007812 12.522524,2.3577904 12.169145,2.191214 11.976562,2.1992188 Z M 9.9707031,4.5507812 c 0.0566,0.00493 0.1195969,0.034686 0.2246089,0.09375 0.315014,0.1640706 0.543746,0.5708362 0.609376,1.0761719 0.118126,0.8269134 -0.118092,1.4645739 -0.820313,2.2324219 l -0.4199219,0.4589844 0.019531,0.90625 0.021484,0.9042966 0.3476562,0.04687 c 0.866291,0.124693 1.240708,0.655344 1.181641,1.666016 -0.0525,0.826914 -0.479812,1.372179 -1.2148441,1.5625 -0.295326,0.07875 -0.3153892,0.09897 -0.3613281,0.341797 -0.02626,0.137819 -0.046174,0.38671 -0.052734,0.550781 0,0.32814 -0.2352975,0.886555 -0.4453125,1.070313 -0.07218,0.07219 -0.2508519,0.164293 -0.3886719,0.216796 -0.137824,0.04594 -0.3214799,0.08524 -0.4199219,0.0918 -0.282201,0 -0.8396775,-0.322018 -1.0234375,-0.597656 -0.30189,-0.452833 -0.2617257,-1.07719 0.066406,-1.03125 0.157496,0.01969 0.2297711,0.204277 0.2363281,0.630859 0.0067,0.354391 0.091156,0.512026 0.3339844,0.636719 0.406894,0.21001 0.7951457,0.06611 1.0117187,-0.386719 0.131267,-0.269074 0.1500837,-1.279604 0.025391,-1.404296 -0.04595,-0.04594 -0.2109201,-0.08008 -0.375,-0.08008 -0.774411,-0.0066 -1.6981045,-0.385992 -2.1640626,-0.884765 -0.452834,-0.49221 -0.5644531,-0.808323 -0.5644531,-1.576172 0,-0.603777 0.011484,-0.681626 0.1953125,-1.009766 C 6.3747836,9.3838768 7.1557262,8.7404966 8.3632812,8.1367188 L 8.9609375,7.8339844 9,6.9550781 C 9.05907,5.7278342 9.354667,4.8561056 9.78125,4.6132812 c 0.08204,-0.04595 0.1328541,-0.067429 0.1894531,-0.0625 z M 9.9199219,4.8535156 C 9.9004519,4.8556856 9.8827575,4.862675 9.8671875,4.875 9.8212375,4.914378 9.749075,5.0852278 9.703125,5.2558594 9.611255,5.603688 9.5320352,7.2317108 9.5976562,7.4023438 9.6370262,7.5204743 9.6775664,7.5066529 10.025391,7.2441406 10.622605,6.7978699 10.785873,6.0815151 10.451172,5.4121094 10.27891,5.0618198 10.056396,4.8382625 9.9199219,4.8535156 Z M 8.9042969,8.7109375 C 8.7537029,8.6935335 7.7709293,9.3740193 7.5039062,9.6855469 7.0641963,10.190883 6.9199219,10.552084 6.9199219,11.123047 c 0,0.452834 0.03358,0.563967 0.2304687,0.951172 0.255951,0.498773 0.6816161,0.879602 1.1738282,1.037109 0.1640779,0.0525 0.3690574,0.08469 0.4609374,0.07813 l 0.1640626,-0.01172 0.019531,-1.070312 c 0.01306,-0.925355 7.51e-5,-1.069999 -0.091797,-1.109375 -0.177192,-0.06563 -0.3096865,0.143888 -0.3359375,0.550781 -0.03937,0.603777 -0.064965,0.675781 -0.2421875,0.675781 -0.196889,0 -0.2363281,-0.103725 -0.2363281,-0.648437 0,-0.616904 0.2220193,-1.057022 0.6289062,-1.253906 L 8.9804688,10.177734 V 9.46875 c 0,-0.4200192 -0.025093,-0.7276549 -0.064453,-0.7539062 -0.0029,-0.00206 -0.00699,-0.00334 -0.011719,-0.00391 z m 5.5898441,1.8457035 c 0.411392,0.0024 0.515995,0.04096 0.917968,0.230468 1.095987,0.518461 1.707032,1.581499 1.707032,2.953125 0,2.086971 -1.47045,4.260185 -3.623047,5.34961 -0.794099,0.400331 -0.898698,0.249708 -0.13086,-0.203125 1.857271,-1.109114 3.084292,-2.967334 3.208985,-4.857422 0.06562,-1.03036 -0.203483,-1.771139 -0.892578,-2.466797 -0.551276,-0.551275 -0.892855,-0.676096 -1.673829,-0.636719 -0.590652,0.03281 -0.931078,0.169907 -1.246093,0.498047 -0.183749,0.196884 -0.184837,0.341797 -0.0078,0.341797 0.21656,0 0.611403,0.216244 0.683594,0.367187 0.09187,0.210011 0.09187,0.565381 0,0.775391 -0.105015,0.229697 -0.473504,0.392347 -0.775391,0.339844 -0.360955,-0.0525 -0.597656,-0.352872 -0.597656,-0.759766 0,-0.761285 0.505904,-1.497097 1.234375,-1.779297 0.288763,-0.111569 0.518963,-0.143828 0.998047,-0.15039 0.07302,-8.15e-4 0.138497,-0.0023 0.197266,-0.002 z m -4.8886722,0.388671 -0.021484,1.082032 c -0.0067,0.590652 4.289e-4,1.116169 0.013672,1.162109 0.04595,0.111568 0.3948306,0.04634 0.6835938,-0.130859 0.347827,-0.203446 0.544606,-0.565135 0.583984,-1.050782 0.03281,-0.393767 0.02501,-0.426552 -0.171875,-0.65625 -0.21656,-0.242824 -0.459045,-0.353904 -0.8593746,-0.386718 z m 8.7480472,0.722657 c 0.367516,0 0.537109,0.169045 0.537109,0.523437 0,0.170633 -0.04568,0.336559 -0.111328,0.421875 -0.223142,0.269075 -0.688428,0.229629 -0.898438,-0.07226 -0.262512,-0.367517 0.0068,-0.873047 0.472657,-0.873047 z m 0.0098,2.197265 c 0.146846,0.0016 0.290934,0.0475 0.382813,0.132813 0.216561,0.203446 0.204302,0.668508 -0.02539,0.845703 -0.216584,0.170633 -0.55241,0.177759 -0.755859,0.01367 -0.223142,-0.183759 -0.223142,-0.68343 0,-0.867188 0.101735,-0.08531 0.251592,-0.126639 0.398437,-0.125 z" /></svg>
