<?xml version="1.0" encoding="UTF-8" standalone="no"?>
<svg
   xmlns:dc="http://purl.org/dc/elements/1.1/"
   xmlns:cc="http://creativecommons.org/ns#"
   xmlns:rdf="http://www.w3.org/1999/02/22-rdf-syntax-ns#"
   xmlns:svg="http://www.w3.org/2000/svg"
   xmlns="http://www.w3.org/2000/svg"
   id="svg16"
   xml:space="preserve"
   enable-background="new 0 0 24.00 24.00"
   viewBox="0 0 24.00 24.00"
   height="24"
   width="24"
   version="1.1"><metadata
   id="metadata22"><rdf:RDF><cc:Work
       rdf:about=""><dc:format>image/svg+xml</dc:format><dc:type
         rdf:resource="http://purl.org/dc/dcmitype/StillImage" /><dc:title></dc:title></cc:Work></rdf:RDF></metadata><defs
   id="defs20" />
	
	
	
	
	
	
	
<g
   style="display:none"
   id="layer1"><path
     id="path2-6"
     d="m 17.844916,4.2694324 c -0.38,-0.03 -0.78,0.06 -1.15,0.26 l -8.6500003,5 c -0.96,0.5599996 -1.28,1.8000006 -0.73,2.7400006 l 1.5,2.59 c 0.55,0.97 1.7700003,1.29 2.7300003,0.74 l 1.8,-1.04 c 0.27,0.46 0.67,0.83 1.16,1.04 v 1.77 c 0,1.09 0.89,1.96 2,1.96 h 5.19 v -1.96 h -5.19 v -1.77 c 0.91,-0.4 1.5,-1.3 1.5,-2.27 0,-0.46 -0.12,-0.89 -0.34,-1.27 l 2.53,-1.46 c 0.97,-0.560001 1.3,-1.7700006 0.74,-2.7400006 l -1.5,-2.59 c -0.34,-0.6 -0.95,-0.94 -1.59,-1 m -11.9300003,8.2300006 -4.22,0.7 0.75,1.3 2,3.46 0.75,1.3 2.72,-3.3 z" /></g><g
   style="display:none"
   id="layer2" /><g
   id="g102"
   style="fill:#fffedb;stroke:none"
   transform="matrix(0.1,0,0,0.1,-111.75345,-89.981349)"><path
     id="path2-0"
     d="m 1151,2401 c -7,-5 -9,-11 -4,-14 6,-4 19,0 29,8 15,11 16,14 4,15 -8,0 -21,-4 -29,-9 z" /><path
     id="path4"
     d="m 1275,2391 c -3,-6 3,-15 14,-21 12,-6 22,-6 26,-1 3,6 -3,15 -14,21 -12,6 -22,6 -26,1 z" /><path
     id="path6-2"
     d="m 1085,2366 c -11,-8 -14,-16 -8,-19 6,-4 18,0 28,7 11,8 14,16 8,19 -6,4 -18,0 -28,-7 z" /><path
     id="path8-3"
     d="m 1345,2351 c -3,-6 3,-15 14,-21 12,-6 22,-6 26,-1 3,6 -3,15 -14,21 -12,6 -22,6 -26,1 z" /><path
     id="path10-6"
     d="m 1015,2326 c -11,-8 -14,-16 -8,-19 6,-4 18,0 28,7 11,8 14,16 8,19 -6,4 -18,0 -28,-7 z" /><path
     id="path12-8"
     d="m 1415,2311 c -3,-6 3,-15 14,-21 12,-6 22,-6 26,-1 3,6 -3,15 -14,21 -12,6 -22,6 -26,1 z" /><path
     id="path14-9"
     d="m 965,2296 c -11,-8 -14,-16 -8,-19 6,-4 18,0 28,7 11,8 14,16 8,19 -6,4 -18,0 -28,-7 z" /><path
     id="path16"
     d="m 1485,2271 c -3,-6 3,-15 14,-21 12,-6 22,-6 26,-1 3,6 -3,15 -14,21 -12,6 -22,6 -26,1 z" /><path
     id="path18"
     d="m 895,2256 c -11,-8 -14,-16 -8,-19 6,-4 18,0 28,7 11,8 14,16 8,19 -6,4 -18,0 -28,-7 z" /><path
     id="path20"
     d="m 1555,2231 c -3,-6 3,-15 14,-21 12,-6 22,-6 26,-1 3,6 -3,15 -14,21 -12,6 -22,6 -26,1 z" /><path
     id="path22"
     d="m 825,2216 c -11,-8 -14,-16 -8,-19 6,-4 18,0 28,7 11,8 14,16 8,19 -6,4 -18,0 -28,-7 z" /><path
     id="path24"
     d="m 1625,2191 c -3,-6 3,-15 14,-21 12,-6 22,-6 26,-1 3,6 -3,15 -14,21 -12,6 -22,6 -26,1 z" /><path
     id="path26"
     d="m 705,2146 c -11,-8 -14,-16 -8,-19 6,-4 18,0 28,7 11,8 14,16 8,19 -6,4 -18,0 -28,-7 z" /><path
     id="path28"
     d="m 1695,2151 c -3,-6 3,-15 14,-21 12,-6 22,-6 26,-1 3,6 -3,15 -14,21 -12,6 -22,6 -26,1 z" /><path
     id="path30"
     d="m 635,2106 c -11,-8 -14,-16 -8,-19 6,-4 18,0 28,7 11,8 14,16 8,19 -6,4 -18,0 -28,-7 z" /><path
     id="path32"
     d="m 1765,2111 c -3,-6 3,-15 14,-21 12,-6 22,-6 26,-1 3,6 -3,15 -14,21 -12,6 -22,6 -26,1 z" /><path
     id="path34"
     d="m 585,2076 c -11,-8 -14,-16 -8,-19 6,-4 18,0 28,7 11,8 14,16 8,19 -6,4 -18,0 -28,-7 z" /><path
     id="path36"
     d="m 1835,2071 c -3,-6 3,-15 14,-21 12,-6 22,-6 26,-1 3,6 -3,15 -14,21 -12,6 -22,6 -26,1 z" /><path
     id="path38"
     d="m 515,2036 c -11,-8 -14,-16 -8,-19 6,-4 18,0 28,7 11,8 14,16 8,19 -6,4 -18,0 -28,-7 z" /><path
     id="path40"
     d="m 465,2006 c -11,-8 -14,-16 -8,-19 6,-4 18,0 28,7 11,8 14,16 8,19 -6,4 -18,0 -28,-7 z" /><path
     id="path42"
     d="m 395,1966 c -11,-8 -14,-16 -8,-19 6,-4 18,0 28,7 11,8 14,16 8,19 -6,4 -18,0 -28,-7 z" /><path
     style="fill:none"
     id="path44"
     d="m 874,1925 c -8,-20 4,-66 23,-87 13,-15 33,-18 110,-18 h 93 v -55 c 0,-44 -4,-57 -17,-61 -63,-20 -167,-80 -210,-122 -106,-102 -153,-205 -161,-350 -4,-87 -3,-95 19,-118 28,-30 41,-30 72,-1 21,19 26,37 35,119 8,78 17,110 43,158 39,73 102,133 177,168 50,24 70,27 157,27 93,0 105,-2 167,-33 130,-64 204,-179 215,-332 8,-109 44,-152 98,-116 31,20 38,70 25,171 -14,114 -63,210 -150,296 -64,64 -173,129 -214,129 -13,0 -16,12 -16,60 v 60 h 88 c 80,0 91,2 111,24 16,17 22,33 19,57 l -3,34 -338,3 c -294,2 -338,0 -343,-13 z" /><path
     id="path46"
     d="m 2095,1921 c -3,-6 3,-15 14,-21 12,-6 22,-6 26,-1 3,6 -3,15 -14,21 -12,6 -22,6 -26,1 z" /><path
     id="path48"
     d="m 275,1896 c -11,-8 -14,-16 -8,-19 6,-4 18,0 28,7 11,8 14,16 8,19 -6,4 -18,0 -28,-7 z" /><path
     id="path50"
     d="m 2215,1851 c -3,-6 3,-15 14,-21 12,-6 22,-6 26,-1 3,6 -3,15 -14,21 -12,6 -22,6 -26,1 z" /><path
     id="path52"
     d="m 2255,1808 c -9,-24 -1,-188 10,-191 14,-3 19,183 6,196 -7,7 -12,5 -16,-5 z" /><path
     style="fill:none"
     id="path54"
     d="m 1133,1482 c -93,-33 -158,-97 -187,-185 -13,-39 -16,-97 -16,-317 0,-261 1,-271 23,-322 27,-61 90,-128 145,-154 53,-26 149,-30 210,-10 67,23 135,84 166,151 l 26,54 v 288 c 0,281 -1,289 -24,338 -26,56 -99,129 -151,151 -58,24 -134,27 -192,6 z m 247,-466 c 0,-16 -21,-26 -53,-26 -53,0 -78,-74 -35,-104 12,-9 37,-16 55,-16 26,0 33,-4 33,-19 0,-13 -10,-20 -36,-24 -47,-8 -74,-33 -74,-68 0,-32 31,-59 67,-59 31,0 29,-10 -9,-47 -65,-63 -162,-61 -228,5 l -35,36 35,7 c 88,19 87,111 -1,125 -29,5 -39,11 -39,25 0,15 7,19 34,19 25,0 40,7 55,26 12,15 21,32 21,38 0,25 -28,49 -66,55 -26,4 -40,12 -42,24 -3,16 10,17 157,17 131,0 161,-3 161,-14 z" /><path
     id="path56"
     d="m 175,591 c -3,-6 3,-15 14,-21 12,-6 22,-6 26,-1 3,6 -3,15 -14,21 -12,6 -22,6 -26,1 z" /><path
     id="path58"
     d="m 2185,566 c -11,-8 -14,-16 -8,-19 6,-4 18,0 28,7 11,8 14,16 8,19 -6,4 -18,0 -28,-7 z" /><path
     id="path60"
     d="m 295,521 c -3,-6 3,-15 14,-21 12,-6 22,-6 26,-1 3,6 -3,15 -14,21 -12,6 -22,6 -26,1 z" /><path
     id="path62"
     d="m 2065,496 c -11,-8 -14,-16 -8,-19 6,-4 18,0 28,7 11,8 14,16 8,19 -6,4 -18,0 -28,-7 z" /><path
     id="path64"
     d="m 365,481 c -3,-6 3,-15 14,-21 12,-6 22,-6 26,-1 3,6 -3,15 -14,21 -12,6 -22,6 -26,1 z" /><path
     id="path66"
     d="m 435,441 c -3,-6 3,-15 14,-21 12,-6 22,-6 26,-1 3,6 -3,15 -14,21 -12,6 -22,6 -26,1 z" /><path
     id="path68"
     d="m 1945,426 c -11,-8 -14,-16 -8,-19 6,-4 18,0 28,7 11,8 14,16 8,19 -6,4 -18,0 -28,-7 z" /><path
     id="path70"
     d="m 505,401 c -3,-6 3,-15 14,-21 12,-6 22,-6 26,-1 3,6 -3,15 -14,21 -12,6 -22,6 -26,1 z" /><path
     id="path72"
     d="m 575,361 c -3,-6 3,-15 14,-21 12,-6 22,-6 26,-1 3,6 -3,15 -14,21 -12,6 -22,6 -26,1 z" /><path
     id="path74"
     d="m 1825,356 c -11,-8 -14,-16 -8,-19 6,-4 18,0 28,7 11,8 14,16 8,19 -6,4 -18,0 -28,-7 z" /><path
     id="path76"
     d="m 645,321 c -3,-6 3,-15 14,-21 12,-6 22,-6 26,-1 3,6 -3,15 -14,21 -12,6 -22,6 -26,1 z" /><path
     id="path78"
     d="m 1755,316 c -11,-8 -14,-16 -8,-19 6,-4 18,0 28,7 11,8 14,16 8,19 -6,4 -18,0 -28,-7 z" /><path
     id="path80"
     d="m 1705,286 c -11,-8 -14,-16 -8,-19 6,-4 18,0 28,7 11,8 14,16 8,19 -6,4 -18,0 -28,-7 z" /><path
     id="path82"
     d="m 715,281 c -3,-6 3,-15 14,-21 12,-6 22,-6 26,-1 3,6 -3,15 -14,21 -12,6 -22,6 -26,1 z" /><path
     id="path84"
     d="m 785,241 c -3,-6 3,-15 14,-21 12,-6 22,-6 26,-1 3,6 -3,15 -14,21 -12,6 -22,6 -26,1 z" /><path
     id="path86"
     d="m 855,201 c -3,-6 3,-15 14,-21 12,-6 22,-6 26,-1 3,6 -3,15 -14,21 -12,6 -22,6 -26,1 z" /><path
     id="path88"
     d="m 1515,176 c -11,-8 -14,-16 -8,-19 6,-4 18,0 28,7 11,8 14,16 8,19 -6,4 -18,0 -28,-7 z" /><path
     id="path90"
     d="m 925,161 c -3,-6 3,-15 14,-21 12,-6 22,-6 26,-1 3,6 -3,15 -14,21 -12,6 -22,6 -26,1 z" /><path
     id="path92"
     d="m 995,121 c -3,-6 3,-15 14,-21 12,-6 22,-6 26,-1 3,6 -3,15 -14,21 -12,6 -22,6 -26,1 z" /><path
     id="path94"
     d="m 1395,106 c -11,-8 -14,-16 -8,-19 6,-4 18,0 28,7 11,8 14,16 8,19 -6,4 -18,0 -28,-7 z" /><path
     id="path96"
     d="m 1065,81 c -3,-6 3,-15 14,-21 12,-6 22,-6 26,-1 3,6 -3,15 -14,21 -12,6 -22,6 -26,1 z" /><path
     id="path98"
     d="m 1135,40 c -3,-6 6,-15 21,-20 41,-16 54,-6 17,13 -20,11 -34,13 -38,7 z" /><path
     id="path100"
     d="m 1274,35 c -18,-14 -18,-14 3,-15 23,0 39,15 25,24 -5,3 -18,-1 -28,-9 z" /></g><g
   id="g108"
   style="fill:#ba478f;stroke:none"
   transform="matrix(0.1,0,0,0.1,-133.18073,-89.793365)"><path
     id="path104"
     d="m 1451.6822,921.40516 c -0.3445,-0.015 -0.6496,0.005 -0.8894,0.0656 -1.7574,0.3994 -74.2912,41.53836 -80.6019,45.69226 l -2.955,1.9175 0.1591,48.88748 0.2403,48.8892 25.9619,15.098 c 14.2989,8.3079 32.7522,19.0112 41.0599,23.8042 8.3078,4.793 15.5762,8.7075 16.2154,8.7075 1.8372,0 7.909,-3.3556 42.1785,-23.0068 18.0536,-10.3848 34.589,-19.8096 36.8258,-21.0878 2.3164,-1.2782 4.4743,-2.7173 4.9536,-3.2764 0.3994,-0.5593 0.9583,-19.8899 1.2778,-48.9672 0.4792,-45.13362 0.3996,-48.08896 -0.8784,-49.20732 -1.4378,-1.19824 -74.851,-43.9361 -80.0433,-46.57223 -1.0785,-0.53921 -2.4709,-0.899 -3.5043,-0.94393 z m 0.691,39.3547 c 2.8822,0.0266 5.6491,0.45153 7.6061,1.2903 4.2339,1.8373 9.1065,6.55162 11.2633,10.86529 1.7574,3.6746 1.8379,4.31304 1.8379,27.31925 V 1023.8 l -2.3965,4.314 c -2.796,5.0325 -6.5507,8.3874 -11.5035,10.0649 -9.1066,3.1154 -20.3695,-0.239 -24.9228,-7.3486 -3.9941,-6.2308 -4.074,-6.3919 -3.9941,-30.83585 0.08,-20.68962 0.2397,-23.48522 1.5977,-26.44088 2.0769,-4.79296 5.9116,-8.78647 10.3052,-10.9433 2.6061,-1.25815 6.5012,-1.88446 10.2067,-1.85041 z m -0.861,7.52177 c -3.5947,0 -6.391,1.43819 -9.9059,5.1128 -2.3165,2.39648 -2.556,3.03524 -1.6772,4.07371 0.5593,0.63906 1.7578,1.19824 2.7163,1.19824 2.2367,0 3.6743,1.43756 3.6743,3.67429 0,2.31659 -1.4378,3.35476 -5.1923,3.6743 -2.9557,0.23963 -3.1954,0.40004 -3.1954,2.63674 0,2.15684 0.3202,2.39585 3.4356,2.95508 4.4735,0.71891 4.9521,1.11898 4.9521,3.83495 0,2.71597 -0.8787,3.35501 -5.1923,3.99411 -3.1954,0.3994 -4.3134,1.83695 -3.275,4.47315 0.3995,0.9585 2.6353,1.1192 13.8189,0.9595 l 13.4209,-0.2403 v -2.3965 c 0,-2.23665 -0.2402,-2.39605 -3.4356,-2.87535 -3.5148,-0.4793 -4.9521,-1.59765 -4.9521,-3.99414 0,-1.83737 1.5973,-2.95666 5.272,-3.75542 2.7958,-0.55923 3.1157,-0.87808 3.1157,-2.95508 0,-2.2367 -0.2397,-2.39648 -3.5947,-2.79589 -2.9558,-0.31953 -3.6749,-0.71832 -4.3141,-2.55563 -0.8786,-2.55623 0.4799,-4.63381 3.0363,-4.63381 0.9586,0 2.3967,-0.47867 3.1157,-0.95797 1.2781,-0.9586 1.1973,-1.27844 -0.9595,-3.91455 -2.8758,-3.51485 -6.8697,-5.51223 -10.8637,-5.51223 z m -35.5479,41.53887 c 1.2782,0 2.556,0.3992 2.8755,0.8784 0.3195,0.5592 0.8786,4.2347 1.1982,8.1491 1.1982,12.941 7.909,22.7662 19.0127,28.0385 4.6331,2.1567 6.1503,2.3961 12.5409,2.476 6.7102,0 7.5887,-0.1604 13.2604,-3.0362 11.1036,-5.4319 16.7753,-13.8983 18.373,-27.0789 0.8786,-8.0682 1.5186,-9.4269 4.1548,-9.4269 2.7958,0 3.6742,1.5974 3.6742,6.8698 0,17.7337 -9.7449,32.1933 -25.7216,38.1843 l -5.0332,1.9177 v 5.0315 5.1129 l 8.3876,0.7989 8.3878,0.7987 0.2402,3.4355 0.2387,3.3547 h -25.9619 -26.0414 v -2.5558 c 0,-1.4378 0.3201,-3.0358 0.6398,-3.5151 0.3195,-0.4792 4.1533,-1.1981 8.5467,-1.5978 l 7.9884,-0.7191 0.2402,-5.0333 c 0.2397,-4.5534 0.08,-5.1111 -1.4385,-5.5106 -0.9587,-0.2396 -4.0746,-1.5983 -7.0302,-3.0362 -13.1808,-6.3906 -20.9284,-18.0529 -22.2066,-33.7099 -0.639,-7.5888 0.1594,-9.8262 3.6743,-9.8262 z"
     style="fill:#000000;stroke-width:0.07988269" /></g></svg>