<?xml version="1.0" encoding="UTF-8" standalone="no"?>
<svg
   xmlns:dc="http://purl.org/dc/elements/1.1/"
   xmlns:cc="http://creativecommons.org/ns#"
   xmlns:rdf="http://www.w3.org/1999/02/22-rdf-syntax-ns#"
   xmlns:svg="http://www.w3.org/2000/svg"
   xmlns="http://www.w3.org/2000/svg"
   id="svg16"
   xml:space="preserve"
   enable-background="new 0 0 24.00 24.00"
   viewBox="0 0 24.00 24.00"
   height="24"
   width="24"
   version="1.1"><metadata
   id="metadata22"><rdf:RDF><cc:Work
       rdf:about=""><dc:format>image/svg+xml</dc:format><dc:type
         rdf:resource="http://purl.org/dc/dcmitype/StillImage" /><dc:title></dc:title></cc:Work></rdf:RDF></metadata><defs
   id="defs20" />
	
	
	
	
	
	
	
<g
   style="display:none"
   id="layer1"><path
     id="path2-6"
     d="m 17.844916,4.2694324 c -0.38,-0.03 -0.78,0.06 -1.15,0.26 l -8.6500003,5 c -0.96,0.5599996 -1.28,1.8000006 -0.73,2.7400006 l 1.5,2.59 c 0.55,0.97 1.7700003,1.29 2.7300003,0.74 l 1.8,-1.04 c 0.27,0.46 0.67,0.83 1.16,1.04 v 1.77 c 0,1.09 0.89,1.96 2,1.96 h 5.19 v -1.96 h -5.19 v -1.77 c 0.91,-0.4 1.5,-1.3 1.5,-2.27 0,-0.46 -0.12,-0.89 -0.34,-1.27 l 2.53,-1.46 c 0.97,-0.560001 1.3,-1.7700006 0.74,-2.7400006 l -1.5,-2.59 c -0.34,-0.6 -0.95,-0.94 -1.59,-1 m -11.9300003,8.2300006 -4.22,0.7 0.75,1.3 2,3.46 0.75,1.3 2.72,-3.3 z" /></g><g
   style="display:none"
   id="layer2" /><path
   id="path136"
   d="m 11.977413,2.1998515 c -0.01282,5.367e-4 -0.02505,0.00192 -0.03653,0.00393 -0.223143,0.045948 -0.45281,0.1443326 -0.695633,0.3084001 -0.105015,0.072177 -0.321526,0.19684 -0.472472,0.2755859 -0.150939,0.085323 -0.44627,0.2560016 -0.656279,0.3806948 -0.2100042,0.1246854 -0.3938192,0.2296992 -0.4135092,0.2296992 -0.01972,0.00666 -0.177217,0.098481 -0.354416,0.2166341 -0.183749,0.1181282 -0.347751,0.2099537 -0.380566,0.2099537 -0.02626,0 -0.177193,0.085342 -0.328139,0.1903559 -0.157521,0.1050138 -0.301915,0.1771924 -0.321604,0.1640779 -0.02626,-0.013065 -0.07879,0.019721 -0.12471,0.072178 -0.04595,0.052507 -0.105014,0.098432 -0.131242,0.098432 -0.03281,0 -0.177193,0.07881 -0.328142,0.1837988 -0.150938,0.098432 -0.295349,0.177143 -0.321603,0.177143 -0.01972,0 -0.124661,0.065597 -0.236232,0.1377924 -0.196888,0.1378195 -0.630028,0.3806684 -0.689095,0.3872313 -0.01972,0 -0.118129,0.059039 -0.229699,0.1377924 -0.105014,0.078753 -0.774386,0.4660105 -1.48317,0.8729042 l -1.286284,0.7349827 -0.03949,1.1878417 c -0.02626,0.6562807 -0.04588,2.8811204 -0.04588,4.9418414 v 3.753894 l 0.347879,0.216625 c 0.183749,0.124693 0.360854,0.21652 0.387105,0.209958 0.01972,-0.0066 0.0788,0.03286 0.118176,0.08537 0.04592,0.0525 0.118154,0.09844 0.157521,0.09844 0.03937,0 0.19684,0.08537 0.341216,0.183809 0.374079,0.242823 0.905666,0.564375 0.951606,0.564375 0.06562,0.0066 1.135443,0.643155 1.260136,0.754722 0.06562,0.0525 0.150938,0.104955 0.196888,0.111517 0.06562,0.01311 0.387205,0.190374 1.246933,0.708834 0.118128,0.06563 0.341215,0.196908 0.505284,0.288789 0.164077,0.09188 0.518463,0.295222 0.787537,0.452731 0.6234662,0.367517 0.5709642,0.334752 1.3453742,0.774462 0.360955,0.203449 0.70222,0.393769 0.754721,0.426583 0.0525,0.03281 0.131243,0.05909 0.170611,0.05909 0.09187,0.0066 0.68912,-0.301915 1.798233,-0.94507 0.485651,-0.282209 0.958171,-0.551232 1.05005,-0.603736 0.09187,-0.0525 0.282202,-0.164095 0.426583,-0.255975 0.144382,-0.09188 0.35439,-0.203446 0.459397,-0.262512 0.111571,-0.0525 0.288763,-0.157533 0.393767,-0.223162 0.11157,-0.07219 0.315013,-0.190294 0.459395,-0.269049 0.387206,-0.203446 0.531614,-0.282252 0.649745,-0.380693 0.05907,-0.04594 0.10499,-0.0656 0.10499,-0.03935 0,0.02625 0.04592,0.0066 0.104989,-0.03935 0.118127,-0.09844 0.301914,-0.209983 0.5513,-0.334678 0.09187,-0.04594 0.262564,-0.151047 0.380694,-0.236365 0.111571,-0.09188 0.209953,-0.137743 0.209953,-0.118053 0,0.02625 0.105015,-0.03281 0.2297,-0.131255 0.124686,-0.09188 0.229699,-0.150944 0.229699,-0.131258 0,0.02626 0.105014,-0.03281 0.229699,-0.131258 0.124686,-0.09188 0.2297,-0.150943 0.2297,-0.131254 0,0.02625 0.111521,-0.03935 0.242764,-0.137793 0.131267,-0.09844 0.242912,-0.17066 0.242912,-0.157533 0.0067,0.01969 0.124637,-0.05258 0.275588,-0.144457 l 0.269049,-0.183681 0.03947,-1.187842 c 0.02626,-0.656281 0.0459,-2.881122 0.0459,-4.941842 V 7.0602795 L 20.334767,6.8830059 c -0.144382,-0.09188 -0.275637,-0.1706081 -0.295326,-0.1706081 -0.01972,0 -0.216511,-0.1181306 -0.439655,-0.262512 C 19.383226,6.2989419 19.107498,6.1414344 18.99593,6.0889319 18.884359,6.0364299 18.674378,5.9248096 18.529996,5.8394941 18.385614,5.7541791 18.155967,5.6229216 18.024712,5.5441679 17.893445,5.4719769 17.657196,5.3276718 17.499687,5.2292306 17.342192,5.1307886 17.204311,5.0520604 17.184622,5.0586226 c -0.01972,0 -0.131194,-0.072217 -0.242764,-0.1575331 -0.11813,-0.091878 -0.216636,-0.1444319 -0.216636,-0.1181785 0,0.019697 -0.04595,0.00666 -0.09843,-0.039343 C 16.528358,4.664808 16.259273,4.5007792 15.937695,4.3432635 15.84582,4.2973135 15.642369,4.1660219 15.478299,4.0610105 15.314221,3.9494396 15.169846,3.8575895 15.15016,3.8575895 15.110793,3.8509295 14.690765,3.6147759 14.32981,3.3981935 14.185429,3.3128755 13.995107,3.2013542 13.903227,3.1554289 13.811352,3.1094809 13.53571,2.9454017 13.279762,2.8010124 12.522989,2.3580215 12.170037,2.1918459 11.977455,2.1998506 Z M 9.9712718,4.5500261 c 0.0566,0.00493 0.1189172,0.03604 0.2239302,0.095104 0.315014,0.1640705 0.544764,0.5709899 0.610393,1.0763256 0.118127,0.8269134 -0.118129,1.4635054 -0.8203502,2.2313534 l -0.420046,0.4593959 0.01972,0.9055903 0.01972,0.9057177 0.347879,0.04589 c 0.8662912,0.124693 1.2403722,0.656305 1.1813052,1.666977 -0.0525,0.826914 -0.479085,1.371677 -1.2141172,1.561998 -0.295326,0.07875 -0.315015,0.09839 -0.360954,0.341215 -0.02626,0.137819 -0.046,0.38723 -0.05256,0.551301 0,0.32814 -0.236306,0.88603 -0.446321,1.069788 -0.07218,0.07219 -0.249285,0.163994 -0.387105,0.216497 -0.137824,0.04594 -0.321603,0.08534 -0.420045,0.0919 -0.282201,0 -0.840011,-0.321551 -1.023771,-0.597189 -0.30189,-0.452833 -0.262512,-1.076377 0.06562,-1.030437 0.157496,0.01969 0.229675,0.20355 0.236232,0.630132 0.0067,0.354391 0.09185,0.511847 0.334678,0.63654 0.406894,0.21001 0.794124,0.0656 1.010697,-0.387231 0.131267,-0.269074 0.150963,-1.279772 0.02627,-1.404465 -0.04595,-0.04594 -0.210075,-0.0787 -0.374155,-0.0787 -0.774411,-0.0066 -1.699767,-0.387205 -2.165725,-0.885978 -0.452834,-0.49221 -0.564375,-0.807224 -0.564375,-1.575073 0,-0.603777 0.01306,-0.682556 0.196888,-1.010696 0.380643,-0.6825295 1.161591,-1.3257103 2.369146,-1.9294881 l 0.597191,-0.3018635 0.03949,-0.8794411 c 0.05907,-1.2272439 0.354289,-2.1000454 0.780872,-2.3428698 0.08204,-0.04595 0.132968,-0.067223 0.189567,-0.062294 z m -0.0514,0.3032733 c -0.01947,0.00217 -0.03723,0.00922 -0.0528,0.021545 -0.04595,0.039378 -0.118129,0.2100622 -0.164079,0.3806938 -0.09187,0.3478286 -0.17061,1.9753522 -0.104989,2.1459851 0.03937,0.1181306 0.07876,0.1049793 0.4265842,-0.157533 C 10.621802,6.7977196 10.785871,6.0823485 10.45117,5.4129428 10.278908,5.0626532 10.056338,4.8380566 9.9198638,4.8533097 Z m -1.016336,3.8569285 c -0.150594,-0.017404 -1.132059,0.6636641 -1.399082,0.9751917 -0.43971,0.5053364 -0.584117,0.8661874 -0.584117,1.4371504 0,0.452834 0.03281,0.564401 0.229699,0.951606 0.255951,0.498773 0.682558,0.879468 1.17477,1.036975 0.164078,0.0525 0.367516,0.08527 0.459396,0.0787 l 0.164078,-0.01306 0.01972,-1.069788 c 0.01306,-0.925355 -2.8e-5,-1.069635 -0.0919,-1.109011 -0.177192,-0.06563 -0.308425,0.14428 -0.334676,0.551173 -0.03937,0.603777 -0.06569,0.67602 -0.242912,0.67602 -0.196889,0 -0.236232,-0.105031 -0.236232,-0.649743 0,-0.616904 0.223117,-1.056585 0.630004,-1.253469 l 0.288787,-0.14433 V 9.4688062 c 0,-0.4200192 -0.02626,-0.7284715 -0.06562,-0.7547228 -0.0029,-0.00206 -0.0071,-0.00328 -0.01183,-0.00385 z m 5.5901722,1.8470701 c 0.411392,0.0024 0.516949,0.04109 0.918922,0.230596 1.095987,0.518461 1.70633,1.581636 1.70633,2.953262 0,2.086971 -1.470019,4.259258 -3.622616,5.348683 -0.794099,0.400331 -0.899105,0.249413 -0.131267,-0.20342 1.857271,-1.109114 3.084414,-2.966387 3.209107,-4.856475 0.06562,-1.03036 -0.203421,-1.77193 -0.892516,-2.467588 -0.551276,-0.551275 -0.892541,-0.676045 -1.673514,-0.636668 -0.590652,0.03281 -0.931917,0.170735 -1.246932,0.498875 -0.183749,0.196884 -0.183724,0.341214 -0.0067,0.341214 0.21656,0 0.610367,0.216549 0.682558,0.367492 0.09187,0.21001 0.09187,0.564452 0,0.774462 -0.105015,0.229697 -0.472576,0.393717 -0.774463,0.341214 -0.360955,-0.0525 -0.597192,-0.354365 -0.597192,-0.761259 0,-0.761285 0.505388,-1.496294 1.233859,-1.778494 0.288763,-0.111569 0.51841,-0.144433 0.997494,-0.150995 0.07302,-8.15e-4 0.137997,-0.0013 0.196766,-9.03e-4 z m -4.8891582,0.388127 -0.01972,1.082863 c -0.0067,0.590652 6.7e-5,1.115625 0.01331,1.161565 0.04595,0.111568 0.393795,0.04594 0.6825582,-0.131257 0.347827,-0.203446 0.54461,-0.564402 0.583988,-1.050049 0.03281,-0.393768 0.02627,-0.426582 -0.170611,-0.65628 -0.21656,-0.242824 -0.459372,-0.354289 -0.8597012,-0.387103 z m 8.7482672,0.721909 c 0.367516,0 0.538097,0.170632 0.538097,0.525024 0,0.170633 -0.04587,0.334729 -0.111522,0.420045 -0.223142,0.269075 -0.689169,0.229724 -0.899179,-0.07217 -0.262512,-0.367517 0.0067,-0.872904 0.472599,-0.872904 z m 0.0106,2.198538 c 0.146846,0.0016 0.29125,0.04594 0.383129,0.131256 0.216561,0.203446 0.203423,0.669431 -0.02627,0.846626 -0.216584,0.170633 -0.551274,0.177147 -0.754723,0.01306 -0.223142,-0.183759 -0.223142,-0.68248 0,-0.866238 0.101735,-0.08531 0.251027,-0.126359 0.397872,-0.12472 z"
   style="fill:#000000;stroke-width:0.0065628" /><g
   id="g102"
   style="fill:#fffedb;stroke:none"
   transform="matrix(0.1,0,0,0.1,-111.75345,-89.981349)"><path
     id="path2-0"
     d="m 1151,2401 c -7,-5 -9,-11 -4,-14 6,-4 19,0 29,8 15,11 16,14 4,15 -8,0 -21,-4 -29,-9 z" /><path
     id="path4"
     d="m 1275,2391 c -3,-6 3,-15 14,-21 12,-6 22,-6 26,-1 3,6 -3,15 -14,21 -12,6 -22,6 -26,1 z" /><path
     id="path6-2"
     d="m 1085,2366 c -11,-8 -14,-16 -8,-19 6,-4 18,0 28,7 11,8 14,16 8,19 -6,4 -18,0 -28,-7 z" /><path
     id="path8-3"
     d="m 1345,2351 c -3,-6 3,-15 14,-21 12,-6 22,-6 26,-1 3,6 -3,15 -14,21 -12,6 -22,6 -26,1 z" /><path
     id="path10-6"
     d="m 1015,2326 c -11,-8 -14,-16 -8,-19 6,-4 18,0 28,7 11,8 14,16 8,19 -6,4 -18,0 -28,-7 z" /><path
     id="path12-8"
     d="m 1415,2311 c -3,-6 3,-15 14,-21 12,-6 22,-6 26,-1 3,6 -3,15 -14,21 -12,6 -22,6 -26,1 z" /><path
     id="path14-9"
     d="m 965,2296 c -11,-8 -14,-16 -8,-19 6,-4 18,0 28,7 11,8 14,16 8,19 -6,4 -18,0 -28,-7 z" /><path
     id="path16"
     d="m 1485,2271 c -3,-6 3,-15 14,-21 12,-6 22,-6 26,-1 3,6 -3,15 -14,21 -12,6 -22,6 -26,1 z" /><path
     id="path18"
     d="m 895,2256 c -11,-8 -14,-16 -8,-19 6,-4 18,0 28,7 11,8 14,16 8,19 -6,4 -18,0 -28,-7 z" /><path
     id="path20"
     d="m 1555,2231 c -3,-6 3,-15 14,-21 12,-6 22,-6 26,-1 3,6 -3,15 -14,21 -12,6 -22,6 -26,1 z" /><path
     id="path22"
     d="m 825,2216 c -11,-8 -14,-16 -8,-19 6,-4 18,0 28,7 11,8 14,16 8,19 -6,4 -18,0 -28,-7 z" /><path
     id="path24"
     d="m 1625,2191 c -3,-6 3,-15 14,-21 12,-6 22,-6 26,-1 3,6 -3,15 -14,21 -12,6 -22,6 -26,1 z" /><path
     id="path26"
     d="m 705,2146 c -11,-8 -14,-16 -8,-19 6,-4 18,0 28,7 11,8 14,16 8,19 -6,4 -18,0 -28,-7 z" /><path
     id="path28"
     d="m 1695,2151 c -3,-6 3,-15 14,-21 12,-6 22,-6 26,-1 3,6 -3,15 -14,21 -12,6 -22,6 -26,1 z" /><path
     id="path30"
     d="m 635,2106 c -11,-8 -14,-16 -8,-19 6,-4 18,0 28,7 11,8 14,16 8,19 -6,4 -18,0 -28,-7 z" /><path
     id="path32"
     d="m 1765,2111 c -3,-6 3,-15 14,-21 12,-6 22,-6 26,-1 3,6 -3,15 -14,21 -12,6 -22,6 -26,1 z" /><path
     id="path34"
     d="m 585,2076 c -11,-8 -14,-16 -8,-19 6,-4 18,0 28,7 11,8 14,16 8,19 -6,4 -18,0 -28,-7 z" /><path
     id="path36"
     d="m 1835,2071 c -3,-6 3,-15 14,-21 12,-6 22,-6 26,-1 3,6 -3,15 -14,21 -12,6 -22,6 -26,1 z" /><path
     id="path38"
     d="m 515,2036 c -11,-8 -14,-16 -8,-19 6,-4 18,0 28,7 11,8 14,16 8,19 -6,4 -18,0 -28,-7 z" /><path
     id="path40"
     d="m 465,2006 c -11,-8 -14,-16 -8,-19 6,-4 18,0 28,7 11,8 14,16 8,19 -6,4 -18,0 -28,-7 z" /><path
     id="path42"
     d="m 395,1966 c -11,-8 -14,-16 -8,-19 6,-4 18,0 28,7 11,8 14,16 8,19 -6,4 -18,0 -28,-7 z" /><path
     style="fill:none"
     id="path44"
     d="m 874,1925 c -8,-20 4,-66 23,-87 13,-15 33,-18 110,-18 h 93 v -55 c 0,-44 -4,-57 -17,-61 -63,-20 -167,-80 -210,-122 -106,-102 -153,-205 -161,-350 -4,-87 -3,-95 19,-118 28,-30 41,-30 72,-1 21,19 26,37 35,119 8,78 17,110 43,158 39,73 102,133 177,168 50,24 70,27 157,27 93,0 105,-2 167,-33 130,-64 204,-179 215,-332 8,-109 44,-152 98,-116 31,20 38,70 25,171 -14,114 -63,210 -150,296 -64,64 -173,129 -214,129 -13,0 -16,12 -16,60 v 60 h 88 c 80,0 91,2 111,24 16,17 22,33 19,57 l -3,34 -338,3 c -294,2 -338,0 -343,-13 z" /><path
     id="path46"
     d="m 2095,1921 c -3,-6 3,-15 14,-21 12,-6 22,-6 26,-1 3,6 -3,15 -14,21 -12,6 -22,6 -26,1 z" /><path
     id="path48"
     d="m 275,1896 c -11,-8 -14,-16 -8,-19 6,-4 18,0 28,7 11,8 14,16 8,19 -6,4 -18,0 -28,-7 z" /><path
     id="path50"
     d="m 2215,1851 c -3,-6 3,-15 14,-21 12,-6 22,-6 26,-1 3,6 -3,15 -14,21 -12,6 -22,6 -26,1 z" /><path
     id="path52"
     d="m 2255,1808 c -9,-24 -1,-188 10,-191 14,-3 19,183 6,196 -7,7 -12,5 -16,-5 z" /><path
     style="fill:none"
     id="path54"
     d="m 1133,1482 c -93,-33 -158,-97 -187,-185 -13,-39 -16,-97 -16,-317 0,-261 1,-271 23,-322 27,-61 90,-128 145,-154 53,-26 149,-30 210,-10 67,23 135,84 166,151 l 26,54 v 288 c 0,281 -1,289 -24,338 -26,56 -99,129 -151,151 -58,24 -134,27 -192,6 z m 247,-466 c 0,-16 -21,-26 -53,-26 -53,0 -78,-74 -35,-104 12,-9 37,-16 55,-16 26,0 33,-4 33,-19 0,-13 -10,-20 -36,-24 -47,-8 -74,-33 -74,-68 0,-32 31,-59 67,-59 31,0 29,-10 -9,-47 -65,-63 -162,-61 -228,5 l -35,36 35,7 c 88,19 87,111 -1,125 -29,5 -39,11 -39,25 0,15 7,19 34,19 25,0 40,7 55,26 12,15 21,32 21,38 0,25 -28,49 -66,55 -26,4 -40,12 -42,24 -3,16 10,17 157,17 131,0 161,-3 161,-14 z" /><path
     id="path56"
     d="m 175,591 c -3,-6 3,-15 14,-21 12,-6 22,-6 26,-1 3,6 -3,15 -14,21 -12,6 -22,6 -26,1 z" /><path
     id="path58"
     d="m 2185,566 c -11,-8 -14,-16 -8,-19 6,-4 18,0 28,7 11,8 14,16 8,19 -6,4 -18,0 -28,-7 z" /><path
     id="path60"
     d="m 295,521 c -3,-6 3,-15 14,-21 12,-6 22,-6 26,-1 3,6 -3,15 -14,21 -12,6 -22,6 -26,1 z" /><path
     id="path62"
     d="m 2065,496 c -11,-8 -14,-16 -8,-19 6,-4 18,0 28,7 11,8 14,16 8,19 -6,4 -18,0 -28,-7 z" /><path
     id="path64"
     d="m 365,481 c -3,-6 3,-15 14,-21 12,-6 22,-6 26,-1 3,6 -3,15 -14,21 -12,6 -22,6 -26,1 z" /><path
     id="path66"
     d="m 435,441 c -3,-6 3,-15 14,-21 12,-6 22,-6 26,-1 3,6 -3,15 -14,21 -12,6 -22,6 -26,1 z" /><path
     id="path68"
     d="m 1945,426 c -11,-8 -14,-16 -8,-19 6,-4 18,0 28,7 11,8 14,16 8,19 -6,4 -18,0 -28,-7 z" /><path
     id="path70"
     d="m 505,401 c -3,-6 3,-15 14,-21 12,-6 22,-6 26,-1 3,6 -3,15 -14,21 -12,6 -22,6 -26,1 z" /><path
     id="path72"
     d="m 575,361 c -3,-6 3,-15 14,-21 12,-6 22,-6 26,-1 3,6 -3,15 -14,21 -12,6 -22,6 -26,1 z" /><path
     id="path74"
     d="m 1825,356 c -11,-8 -14,-16 -8,-19 6,-4 18,0 28,7 11,8 14,16 8,19 -6,4 -18,0 -28,-7 z" /><path
     id="path76"
     d="m 645,321 c -3,-6 3,-15 14,-21 12,-6 22,-6 26,-1 3,6 -3,15 -14,21 -12,6 -22,6 -26,1 z" /><path
     id="path78"
     d="m 1755,316 c -11,-8 -14,-16 -8,-19 6,-4 18,0 28,7 11,8 14,16 8,19 -6,4 -18,0 -28,-7 z" /><path
     id="path80"
     d="m 1705,286 c -11,-8 -14,-16 -8,-19 6,-4 18,0 28,7 11,8 14,16 8,19 -6,4 -18,0 -28,-7 z" /><path
     id="path82"
     d="m 715,281 c -3,-6 3,-15 14,-21 12,-6 22,-6 26,-1 3,6 -3,15 -14,21 -12,6 -22,6 -26,1 z" /><path
     id="path84"
     d="m 785,241 c -3,-6 3,-15 14,-21 12,-6 22,-6 26,-1 3,6 -3,15 -14,21 -12,6 -22,6 -26,1 z" /><path
     id="path86"
     d="m 855,201 c -3,-6 3,-15 14,-21 12,-6 22,-6 26,-1 3,6 -3,15 -14,21 -12,6 -22,6 -26,1 z" /><path
     id="path88"
     d="m 1515,176 c -11,-8 -14,-16 -8,-19 6,-4 18,0 28,7 11,8 14,16 8,19 -6,4 -18,0 -28,-7 z" /><path
     id="path90"
     d="m 925,161 c -3,-6 3,-15 14,-21 12,-6 22,-6 26,-1 3,6 -3,15 -14,21 -12,6 -22,6 -26,1 z" /><path
     id="path92"
     d="m 995,121 c -3,-6 3,-15 14,-21 12,-6 22,-6 26,-1 3,6 -3,15 -14,21 -12,6 -22,6 -26,1 z" /><path
     id="path94"
     d="m 1395,106 c -11,-8 -14,-16 -8,-19 6,-4 18,0 28,7 11,8 14,16 8,19 -6,4 -18,0 -28,-7 z" /><path
     id="path96"
     d="m 1065,81 c -3,-6 3,-15 14,-21 12,-6 22,-6 26,-1 3,6 -3,15 -14,21 -12,6 -22,6 -26,1 z" /><path
     id="path98"
     d="m 1135,40 c -3,-6 6,-15 21,-20 41,-16 54,-6 17,13 -20,11 -34,13 -38,7 z" /><path
     id="path100"
     d="m 1274,35 c -18,-14 -18,-14 3,-15 23,0 39,15 25,24 -5,3 -18,-1 -28,-9 z" /></g></svg>