<?xml version="1.0" encoding="UTF-8"?><!DOCTYPE svg PUBLIC "-//W3C//DTD SVG 1.1//EN" "http://www.w3.org/Graphics/SVG/1.1/DTD/svg11.dtd"><svg xmlns="http://www.w3.org/2000/svg" xmlns:xlink="http://www.w3.org/1999/xlink" version="1.1" width="24" height="24" viewBox="0 0 24 24"><path d="M 8.6319517,16.998943 1.7306267,13.039257 V 4.6677498 L 8.6319517,0.70806304 V 10.21097 L 5.5773857,8.4013691 V 5.9602306 c 5.78e-4,-0.015855 0.0012,-0.031785 0,-0.048367 0,0 0.01411,-0.1889085 0,-0.2258546 -0.06589,-0.2949838 -0.361927,-0.5479696 -0.674366,-0.7559703 -0.548367,-0.364221 -1.194352,-0.344758 -1.475081,0.076917 -0.280002,0.4215301 -0.09538,1.1068123 0.452986,1.4710333 0.306184,0.2033468 0.610593,0.2731951 0.904268,0.2260668 v 5.7221992 c 0,0.0033 0.0013,0.0058 0.0013,0.0092 5.79e-4,0.01193 0.0017,0.02371 0.0034,0.03622 0.0016,0.01018 0.0028,0.02066 0.0051,0.03026 0.0022,0.01018 0.0062,0.02093 0.0096,0.03111 0.0035,0.01018 0.0064,0.0205 0.01087,0.03068 0.0047,0.0096 0.0097,0.01895 0.01534,0.02855 0.0051,0.0097 0.01015,0.01875 0.01641,0.02791 0.0063,0.009 0.01367,0.01686 0.02109,0.02472 0.0068,0.0086 0.01352,0.01729 0.02152,0.02514 0.0074,0.0068 0.01537,0.01249 0.02322,0.01875 0.0097,0.008 0.01949,0.01532 0.03026,0.02216 0.0023,0.0016 0.0046,0.0034 0.0068,0.0051 l 3.681844,2.246607 z m 0.565913,0 v -4.186179 c 0.313748,-0.01702 0.714078,-0.08026 1.1318263,-0.262076 0.139783,-0.0023 0.712496,0.01932 1.125008,0.485799 -0.154619,0.221529 -0.169862,0.522882 -0.01641,0.76492 0.126691,0.201601 0.345378,0.321948 0.585089,0.321948 0.130765,0 0.258625,-0.03673 0.369463,-0.106109 0.157383,-0.09993 0.265801,-0.254645 0.30682,-0.435301 0.03971,-0.180656 0.0074,-0.365318 -0.09141,-0.520955 -0.126691,-0.201165 -0.345602,-0.322161 -0.584876,-0.322161 -0.0688,0 -0.135625,0.0107 -0.200499,0.03004 -0.269238,-0.319856 -0.595534,-0.488633 -0.88019,-0.576779 0.22851,-0.174983 0.430726,-0.385624 0.604691,-0.629408 0.178329,0.04029 0.371409,0.0131 0.527774,-0.08523 0.323784,-0.205092 0.420349,-0.63349 0.21584,-0.956256 -0.127856,-0.202329 -0.347182,-0.322801 -0.58573,-0.322801 -0.131345,0 -0.259623,0.03699 -0.370315,0.107387 -0.321601,0.204075 -0.418391,0.632483 -0.215626,0.955831 0.01367,0.02094 0.02804,0.0408 0.04389,0.06072 -0.257311,0.351711 -0.584053,0.619144 -0.973729,0.796454 -5.78e-4,0 -0.0013,5.7e-5 -0.0019,6.44e-4 -0.3618933,0.163637 -0.7134883,0.224971 -0.9897083,0.241408 V 9.6454781 c 0.582404,-0.04262 0.8556673,-0.335606 1.0595953,-0.568044 0.153456,-0.174401 0.240494,-0.266646 0.391622,-0.274646 0.219347,-0.01135 0.386336,-0.005 0.548229,6.43e-4 0.196655,0.0068 0.376683,0.01319 0.598939,-0.013 0.64204,0.01033 0.859527,0.151596 1.089638,0.301707 0.184001,0.119273 0.390925,0.253397 0.772164,0.308524 0.01818,0.06138 0.04433,0.121612 0.08011,0.17834 0.02167,0.0336 0.04614,0.06438 0.07159,0.09332 0.01542,0.01644 0.03251,0.03011 0.04837,0.04538 -0.125528,0.4631309 -0.148185,1.1199289 0.0047,1.6306229 -0.0029,0.0029 -0.0058,0.0046 -0.0081,0.0068 -0.24262,0.221674 -0.297787,0.59223 -0.116549,0.878486 0.127274,0.201747 0.346667,0.322801 0.585941,0.322801 0.130619,0 0.258413,-0.03757 0.36925,-0.107387 0.157383,-0.09949 0.26589,-0.254074 0.306181,-0.434875 0.04029,-0.180656 0.0081,-0.365173 -0.09077,-0.520956 -0.126691,-0.201019 -0.346174,-0.321948 -0.585303,-0.321948 -0.01251,0 -0.02563,0.0016 -0.03814,0.0028 -0.107929,-0.395494 -0.08398,-0.917198 -0.0038,-1.2745839 0.01411,0.0012 0.02836,0.0023 0.04261,0.0023 0.13062,0 0.258413,-0.03693 0.36925,-0.106748 0.157384,-0.100074 0.265891,-0.253918 0.306181,-0.435301 0.04029,-0.180074 0.0081,-0.365386 -0.09077,-0.521169 -0.126691,-0.201019 -0.346174,-0.321948 -0.585303,-0.321948 -0.131345,0 -0.258615,0.03742 -0.369888,0.107387 -0.01484,0.0096 -0.02375,0.01585 -0.03175,0.02152 -0.110255,0.07782 -0.191142,0.18291 -0.238851,0.300002 -0.253965,-0.04262 -0.387983,-0.128999 -0.549293,-0.234163 -0.131782,-0.08509 -0.271545,-0.176033 -0.476638,-0.247161 0.513022,-0.377748 1.202168,-1.086347 1.491915,-1.560096 0.05629,0.01411 0.114722,0.02152 0.174503,0.02152 0.131201,0 0.258626,-0.03687 0.369463,-0.106109 0.157383,-0.100073 0.266317,-0.254713 0.306607,-0.4355139 0.04029,-0.1806557 0.0081,-0.3651145 -0.09077,-0.5203159 C 14.781532,5.6620649 14.562788,5.541079 14.323078,5.541079 c -0.130765,0 -0.258771,0.036627 -0.369463,0.1071738 -0.01484,0.0096 -0.0238,0.015848 -0.03239,0.021521 -0.298911,0.2109102 -0.380119,0.6218138 -0.183027,0.9336708 0.01077,0.017018 0.02329,0.032938 0.0358,0.048793 -0.302838,0.5261115 -1.376693,1.5478795 -1.671531,1.6206065 -0.384584,0.09542 -0.606753,0.08731 -0.888501,0.07713 -0.163637,-0.0057 -0.34964,-0.01309 -0.589351,0 -0.348948,0.01876 -0.53967,0.236424 -0.7078173,0.427843 -0.176147,0.201747 -0.346094,0.381392 -0.718897,0.414847 V 4.4414784 c 0.05745,0.011346 0.155239,0.031401 0.289349,0.09162 0.01295,0.00742 0.02644,0.013659 0.0407,0.018751 0.37833,0.1812372 0.9631253,0.618097 1.4216013,1.6613045 -0.128874,0.094837 -0.220943,0.2302477 -0.260798,0.3882124 -0.0448,0.1789098 -0.01806,0.3652358 0.07692,0.5243638 0.124364,0.208584 0.352697,0.33729 0.595317,0.33729 0.124509,0 0.247202,-0.03344 0.354548,-0.09759 0.327856,-0.196074 0.435253,-0.622164 0.240342,-0.9494385 C 11.835403,6.2148298 11.618898,6.0882071 11.385878,6.0797711 11.094385,5.4007846 10.746704,4.9404985 10.41492,4.6279138 c 0.195347,-0.037963 0.336446,-0.1192742 0.469392,-0.2090207 0.104001,-0.071128 0.158554,-0.1052789 0.25121,-0.1103702 0.121018,-0.00349 0.382409,0.071716 0.602774,0.1512796 -0.02662,0.2221106 0.05389,0.4537995 0.236294,0.6100187 0.125528,0.1079277 0.285259,0.1672594 0.450642,0.1672594 0.202184,0 0.393647,-0.088098 0.52543,-0.2414079 0.120437,-0.1403649 0.179015,-0.3195403 0.165342,-0.5041234 -0.01426,-0.1847282 -0.09934,-0.3523061 -0.239703,-0.4721618 -0.124946,-0.1080738 -0.285192,-0.1670466 -0.45043,-0.1670466 -0.181819,0 -0.355278,0.071474 -0.484734,0.1977286 -0.209164,-0.079564 -0.555776,-0.194746 -0.794323,-0.194746 -0.01193,0 -0.02381,4.363e-4 -0.03516,0.00109 -0.222838,0.011346 -0.366675,0.1090436 -0.482603,0.186862 -0.17731,0.1204372 -0.345991,0.234151 -0.9505043,0.080114 C 9.4109127,4.0023714 9.2291387,3.9920764 9.1978657,3.9887306 V 0.70809684 L 16.099192,4.6677836 v 8.3714734 z m 2.8255173,-3.329 c -0.08291,0 -0.158577,-0.04135 -0.201777,-0.110583 -0.06807,-0.108074 -0.04014,-0.248852 0.06328,-0.322162 l 0.01066,-0.0075 c 0.110254,-0.06996 0.2614,-0.03356 0.329618,0.07394 0.03404,0.05396 0.04543,0.117441 0.03132,0.179405 -0.01367,0.06255 -0.05172,0.115809 -0.105682,0.150427 -0.03811,0.02386 -0.08247,0.03644 -0.127416,0.03644 z M 8.6319517,12.360204 5.5773857,10.550603 V 9.1927101 L 8.6319517,11.00295 Z M 14.324107,12.10239 c -0.08306,0 -0.157994,-0.04141 -0.201776,-0.110797 -0.0688,-0.107928 -0.04079,-0.249491 0.06307,-0.3228 l 0.01087,-0.0066 c 0.110109,-0.06996 0.261769,-0.03362 0.329405,0.07372 0.03418,0.05411 0.04499,0.117597 0.03132,0.178979 -0.01426,0.06298 -0.05172,0.116604 -0.105683,0.15064 -0.03811,0.02385 -0.0824,0.03686 -0.127203,0.03686 z m -2.617773,-0.972237 c -0.04538,0 -0.08925,-0.01252 -0.126777,-0.0358 -0.03171,-0.01935 -0.0573,-0.04425 -0.07606,-0.07436 -0.0704,-0.112001 -0.03748,-0.260341 0.07393,-0.331323 0.03854,-0.02385 0.08247,-0.03686 0.127416,-0.03686 0.08291,0 0.158467,0.0419 0.203268,0.111862 0.07055,0.111274 0.03685,0.259063 -0.075,0.330045 -0.03753,0.02385 -0.08183,0.03643 -0.126777,0.03643 z m 2.617773,-1.6823989 c -0.08306,0 -0.157994,-0.04141 -0.201776,-0.110796 -0.0688,-0.107928 -0.04079,-0.249434 0.06307,-0.322162 l 0.01087,-0.0072 c 0.110109,-0.06996 0.261769,-0.03362 0.329405,0.07372 0.03418,0.05411 0.04499,0.117653 0.03132,0.179618 -0.01426,0.0624 -0.05172,0.115964 -0.105683,0.150001 -0.03811,0.02444 -0.0824,0.03686 -0.127203,0.03686 z m -2.963158,-2.437943 c -0.08524,0 -0.162044,-0.04382 -0.205826,-0.116549 -0.03287,-0.05498 -0.04184,-0.119358 -0.02642,-0.181322 0.01585,-0.061819 0.05455,-0.1140884 0.109092,-0.1463795 0.03753,-0.022255 0.08011,-0.034304 0.122728,-0.034304 0.08509,0 0.16183,0.043879 0.205612,0.1171884 0.06706,0.1130191 0.03001,0.2596951 -0.08374,0.3279141 -0.03636,0.02153 -0.07883,0.03345 -0.121449,0.03345 z M 14.324107,6.472237 c -0.08306,0 -0.157994,-0.041414 -0.201776,-0.1107967 -0.0688,-0.1079277 -0.04079,-0.2494905 0.06307,-0.3228001 l 0.01087,-0.00661 c 0.110109,-0.069964 0.261769,-0.034206 0.329405,0.073722 0.03418,0.053964 0.04499,0.117015 0.03132,0.178978 -0.01426,0.062983 -0.05172,0.1160222 -0.105683,0.1506403 -0.03811,0.023855 -0.0824,0.036862 -0.127203,0.036862 z M 12.425231,4.7836596 c -0.04044,0 -0.10019,-0.00967 -0.155754,-0.057955 -0.100073,-0.085819 -0.111387,-0.2369351 -0.02557,-0.336863 0.0448,-0.052945 0.111417,-0.083097 0.181962,-0.083097 0.03971,0 0.09919,0.00961 0.154902,0.057316 0.04887,0.041455 0.07779,0.099648 0.08288,0.163211 0.0047,0.063709 -0.01528,0.124779 -0.05732,0.1736521 -0.04553,0.053528 -0.111291,0.083736 -0.181109,0.083736 z"/></svg>
