<?xml version="1.0" encoding="UTF-8" standalone="no"?>
<svg
   xmlns:dc="http://purl.org/dc/elements/1.1/"
   xmlns:cc="http://creativecommons.org/ns#"
   xmlns:rdf="http://www.w3.org/1999/02/22-rdf-syntax-ns#"
   xmlns:svg="http://www.w3.org/2000/svg"
   xmlns="http://www.w3.org/2000/svg"
   id="svg8"
   version="1.1"
   viewBox="0 0 7.1759187 7.1759184"
   height="7.1759186mm"
   width="7.1759186mm">
  <defs
     id="defs2" />
  <metadata
     id="metadata5">
    <rdf:RDF>
      <cc:Work
         rdf:about="">
        <dc:format>image/svg+xml</dc:format>
        <dc:type
           rdf:resource="http://purl.org/dc/dcmitype/StillImage" />
        <dc:title></dc:title>
      </cc:Work>
    </rdf:RDF>
  </metadata>
  <g
     style="display:inline"
     transform="translate(-7.6391621,-5.2188855)"
     id="g912">
    <circle
       r="3.5786972"
       cy="8.8068447"
       cx="11.227121"
       id="circle910"
       style="fill:#f18f3b;fill-opacity:1;stroke:none;stroke-width:0.01852407;stroke-miterlimit:4;stroke-dasharray:none;stroke-opacity:1" />
  </g>
  <g
     transform="translate(-7.6391621,-5.2188855)"
     style="display:inline"
     id="layer2">
    <path
       style="display:inline;fill:#ffffff;stroke-width:0.26458332"
       d="m 8.5812914,6.7877903 h 2.1166596 a 0.52916667,0.52916667 0 0 1 0.52917,-0.52916 0.52916667,0.52916667 0 0 1 0.52917,0.52916 h 2.11666 v 0.52917 h -0.26458 v 2.9104247 h -1.52136 l 0.46303,1.587501 h -0.52917 l -0.46302,-1.587501 h -0.66146 l -0.46302,1.587501 H 9.9042014 L 10.367221,10.227385 H 8.8458714 V 7.3169603 h -0.26458 v -0.52917 m 0.79375,0.52917 v 2.38125 h 3.7041596 v -2.38125 H 9.3750414 m 1.8123896,1.8124 c -0.0238,0.0238 -0.0556,0.0397 -0.0926,0.0397 a 0.13229167,0.13229167 0 0 1 -0.13229,-0.13229 v -1.05833 a 0.13229167,0.13229167 0 0 1 0.13229,-0.13229 c 0.037,0 0.0688,0.0159 0.0926,0.0397 l 0.37042,0.36777 c 0.0847,0.0847 0.16933,0.16934 0.16933,0.254 0,0.0847 -0.0847,0.16934 -0.16933,0.254 z"
       id="path846" />
  </g>
</svg>
