<?xml version="1.0" encoding="UTF-8" standalone="no"?>
<svg
   xmlns:dc="http://purl.org/dc/elements/1.1/"
   xmlns:cc="http://creativecommons.org/ns#"
   xmlns:rdf="http://www.w3.org/1999/02/22-rdf-syntax-ns#"
   xmlns:svg="http://www.w3.org/2000/svg"
   xmlns="http://www.w3.org/2000/svg"
   xmlns:sodipodi="http://sodipodi.sourceforge.net/DTD/sodipodi-0.dtd"
   xmlns:inkscape="http://www.inkscape.org/namespaces/inkscape"
   id="svg8"
   version="1.1"
   viewBox="0 0 7.1759187 7.1759184"
   height="7.1759186mm"
   width="7.1759186mm"
   sodipodi:docname="songbook.svg"
   inkscape:version="0.92.5 (2060ec1f9f, 2020-04-08)">
  <sodipodi:namedview
     pagecolor="#ffffff"
     bordercolor="#666666"
     borderopacity="1"
     objecttolerance="10"
     gridtolerance="10"
     guidetolerance="10"
     inkscape:pageopacity="0"
     inkscape:pageshadow="2"
     inkscape:window-width="1888"
     inkscape:window-height="2071"
     id="namedview9"
     showgrid="false"
     inkscape:zoom="20"
     inkscape:cx="4.799784"
     inkscape:cy="13.560791"
     inkscape:window-x="1930"
     inkscape:window-y="67"
     inkscape:window-maximized="1"
     inkscape:current-layer="svg8" />
  <defs
     id="defs2" />
  <metadata
     id="metadata5">
    <rdf:RDF>
      <cc:Work
         rdf:about="">
        <dc:format>image/svg+xml</dc:format>
        <dc:type
           rdf:resource="http://purl.org/dc/dcmitype/StillImage" />
        <dc:title />
      </cc:Work>
    </rdf:RDF>
  </metadata>
  <g
     style="display:inline"
     id="g904"
     transform="matrix(0.88719436,0,0,0.88719436,-6.3726795,-4.2254237)">
    <circle
       style="fill:#59a14e;fill-opacity:1;stroke:none;stroke-width:0.01852407;stroke-miterlimit:4;stroke-dasharray:none;stroke-opacity:1"
       id="circle902"
       cx="11.227121"
       cy="8.8068447"
       r="3.5786972" />
  </g>
  <g
     transform="matrix(0.75511912,0,0,0.75511912,-4.783515,-3.0622577)"
     style="display:inline;opacity:0.97000002"
     id="layer4">
    <path
       style="display:inline;fill:#ffffff;stroke-width:0.26458332"
       d="m 13.599839,6.4255697 v 3.3073 a 0.92604167,0.92604167 0 0 1 -0.926042,0.9260403 0.92604167,0.92604167 0 0 1 -0.926041,-0.9260403 0.92604167,0.92604167 0 0 1 0.926041,-0.92605 c 0.142875,0 0.277813,0.0318 0.396875,0.09 v -1.5531 l -2.645833,0.56356 V 10.26207 a 0.92604167,0.92604167 0 0 1 -0.9260445,0.92605 0.92604167,0.92604167 0 0 1 -0.926041,-0.92605 0.92604167,0.92604167 0 0 1 0.926041,-0.9260403 c 0.142875,0 0.277813,0.0318 0.3968757,0.09 v -2.20663 z"
       id="path826"
       inkscape:connector-curvature="0" />
  </g>
</svg>
