<?xml version="1.0" encoding="UTF-8" standalone="no"?>
<svg
   xmlns:dc="http://purl.org/dc/elements/1.1/"
   xmlns:cc="http://creativecommons.org/ns#"
   xmlns:rdf="http://www.w3.org/1999/02/22-rdf-syntax-ns#"
   xmlns:svg="http://www.w3.org/2000/svg"
   xmlns="http://www.w3.org/2000/svg"
   xmlns:sodipodi="http://sodipodi.sourceforge.net/DTD/sodipodi-0.dtd"
   xmlns:inkscape="http://www.inkscape.org/namespaces/inkscape"
   id="svg8"
   version="1.1"
   viewBox="0 0 24 24"
   height="24"
   width="24"
   sodipodi:docname="musescore.svg"
   inkscape:version="0.92.3 (2405546, 2018-03-11)">
  <sodipodi:namedview
     pagecolor="#ffffff"
     bordercolor="#666666"
     borderopacity="1"
     objecttolerance="10"
     gridtolerance="10"
     guidetolerance="10"
     inkscape:pageopacity="0"
     inkscape:pageshadow="2"
     inkscape:window-width="3035"
     inkscape:window-height="1815"
     id="namedview20"
     showgrid="false"
     units="px"
     inkscape:zoom="14.89781"
     inkscape:cx="23.193792"
     inkscape:cy="-8.3209053"
     inkscape:window-x="4497"
     inkscape:window-y="313"
     inkscape:window-maximized="0"
     inkscape:current-layer="svg8" />
  <defs
     id="defs2">
    <clipPath
       clipPathUnits="userSpaceOnUse"
       id="clipPath28">
      <path
         d="m 5120,0 c 2827.7,0 5120,2292.3 5120,5120 0,2827.7 -2292.3,5120 -5120,5120 C 2292.3,10240 0,7947.7 0,5120 0,2292.3 2292.3,0 5120,0 Z"
         id="path26"
         style="clip-rule:evenodd"
         inkscape:connector-curvature="0" />
    </clipPath>
    <clipPath
       clipPathUnits="userSpaceOnUse"
       id="clipPath34">
      <path
         d="M 0,0 H 10240 V 10240 H 0 Z"
         id="path32"
         inkscape:connector-curvature="0" />
    </clipPath>
    <clipPath
       clipPathUnits="userSpaceOnUse"
       id="clipPath44">
      <path
         d="m 6053.09,3920.41 c 1.64,-155.72 11.26,-294.11 58.9,-408.11 53.87,-126.34 126.55,-232.23 217.17,-317.66 95.52,-81.84 203.3,-142.81 323.31,-182.92 124.51,-37.3 255.14,-55.34 391.9,-55.34 191.05,0 358.43,34.48 503.76,103.49 144.92,73.78 265.34,168.85 360.46,287.18 99.19,121.92 173.91,262.72 224.11,421.95 49.4,158.43 74.3,325.29 74.3,500.57 v 1777.24 h 124.11 V 4269.57 c 0,-410.61 -86.88,-590.94 -86.88,-590.94 -57.98,-244.67 -222.37,-441.3 -420.77,-599.74 -195.12,-159.24 -463.93,-238.43 -779.09,-238.43 -165.74,0 -319.24,22.47 -460.08,66.99 -136.34,48.93 -256.77,119.91 -360.45,213.38 -99.2,98.26 -177.99,216.6 -236.37,354.96 -39.6,104.3 -49.4,216.59 -55.93,341.33 -0.41,46.93 -0.41,102.68 -0.41,151.22 l 0.18,0.03 -4.25,1003.51 c 0,154.82 -14.29,295.21 -42.88,421.95 -24.89,125.55 -72.66,233.84 -143.28,323.49 -66.13,89.24 -157.57,158.44 -273.51,207.57 -111.85,49.13 -255.14,73.19 -429.05,73.19 -153.48,0 -292.29,-30.48 -416.39,-91.44 -124.1,-56.95 -230.24,-136.58 -317.61,-238.45 -86.53,-101.48 -153.07,-219.8 -198.39,-354.18 -45.72,-129.95 -68.58,-268.33 -68.58,-415.53 V 2907.45 h -124.1 v 2015.5 c 0,146.8 -12.65,285.59 -37.56,415.54 -20.41,130.35 -62.05,244.26 -124.1,342.53 -62.05,97.27 -149.41,174.67 -261.26,231.64 -111.86,56.75 -257.19,85.42 -435.17,85.42 -157.58,0 -306.78,-33.32 -434.96,-106.32 -129,-69.19 -242.36,-167.11 -333.39,-289.23 -87.37,-118.33 -155.13,-256.71 -204.94,-415.54 -45.72,-158.84 -58.71,-326.6 -58.71,-502.29 V 2907.45 H 1898.67 V 4684.7 c 0,590.23 168.98,815.94 231.04,917.83 62.05,101.87 164.75,197.89 255.38,275.31 91.44,77.4 198.11,136.21 305.88,176.72 111.85,44.92 239.69,66.07 364.21,66.07 249.01,8.01 455.98,-55.16 621.73,-189.73 170.22,-130.35 281.68,-311.25 347.81,-543.48 62.45,219.8 184.92,396.88 366.99,531.45 182.49,134.37 397.61,201.76 646.63,201.76 195.13,0 356.38,-28.68 484.98,-85.64 128.59,-57.36 231.87,-136.57 310.66,-238.05 78.79,-98.27 134.72,-218.2 168.19,-360.99 33.06,-138.38 49.81,-292.79 49.81,-464.07 z m 953.32,3027.47 c 0,77.21 64.09,139.78 142.46,139.78 78.79,0 142.47,-62.57 142.47,-139.78 0,-77.41 -63.68,-139.98 -142.47,-139.98 -78.37,0 -142.46,62.57 -142.46,139.98 z m -714.71,781.85 c 225.46,182.67 536.44,287.43 853.19,287.43 313.34,0 603.31,-99.02 816.47,-278.8 243,-204.97 371.45,-500.98 371.45,-856.06 h -112.8 c 0,321.77 -114.85,588.7 -332.12,771.96 -192.73,162.56 -456.59,252.08 -743,252.08 -564.14,0 -1135.25,-351.75 -1135.25,-1024.04 h -112.8 c 0,345.12 136.54,638.16 394.86,847.43 z"
         id="path42"
         style="clip-rule:evenodd"
         inkscape:connector-curvature="0" />
    </clipPath>
    <clipPath
       clipPathUnits="userSpaceOnUse"
       id="clipPath50">
      <path
         d="M 0,0 H 10240 V 10240 H 0 Z"
         id="path48"
         inkscape:connector-curvature="0" />
    </clipPath>
  </defs>
  <metadata
     id="metadata5">
    <rdf:RDF>
      <cc:Work
         rdf:about="">
        <dc:format>image/svg+xml</dc:format>
        <dc:type
           rdf:resource="http://purl.org/dc/dcmitype/StillImage" />
        <dc:title></dc:title>
      </cc:Work>
    </rdf:RDF>
  </metadata>
  <g
     transform="matrix(0.09074445,0,0,0.07747838,2.6041131,-2.7055114)"
     id="layer1">
    <g
       id="g18"
       transform="matrix(0.35277777,0,0,-0.35277777,-51.206691,350.35202)">
      <g
         id="g20"
         transform="scale(0.1)">
        <g
           id="g38">
          <g
             id="g40"
             clip-path="url(#clipPath44)">
            <g
               id="g46"
               clip-path="url(#clipPath50)" />
          </g>
        </g>
        <path
           d="m 5325.5215,3371.5798 c 1.64,-155.72 11.26,-294.11 58.9,-408.11 53.87,-126.34 126.55,-232.23 217.17,-317.66 95.53,-81.84 203.3,-142.81 323.31,-182.92 124.51,-37.29 255.14,-55.34 391.9,-55.34 191.05,0 358.43,34.48 503.76,103.49 144.92,73.78 265.35,168.85 360.46,287.18 99.19,121.92 173.91,262.72 224.11,421.95 49.4,158.43 74.3,325.29 74.3,500.57 v 1777.24 h 124.11 v -1777.24 c 0,-410.61 -86.88,-590.94 -86.88,-590.94 -57.98,-244.67 -222.37,-441.3 -420.77,-599.74 -195.12,-159.24 -463.93,-238.43 -779.09,-238.43 -165.74,0 -319.23,22.47 -460.07,66.99 -136.35,48.93 -256.78,119.91 -360.46,213.38 -99.2,98.26 -177.99,216.6 -236.37,354.96 -39.6,104.3 -49.4,216.59 -55.93,341.33 -0.41,46.93 -0.41,102.68 -0.41,151.22 l 0.18,0.03 -4.25,1003.51 c 0,154.82 -14.29,295.21 -42.87,421.95 -24.9,125.55 -72.67,233.84 -143.29,323.49 -66.13,89.24 -157.57,158.44 -273.51,207.57 -111.85,49.13 -255.14,73.19 -429.05,73.19 -153.48,0 -292.29,-30.48 -416.39,-91.44 -124.1,-56.95 -230.24,-136.58 -317.61,-238.45 -86.53,-101.48 -153.07,-219.8 -198.39,-354.18 -45.72,-129.95 -68.58,-268.33 -68.58,-415.53 v -1991.03 h -124.1 v 2015.5 c 0,146.81 -12.65,285.59 -37.56,415.54 -20.41,130.35 -62.05,244.26 -124.1,342.53 -62.05,97.27 -149.41,174.67 -261.26,231.64 -111.86,56.75 -257.19,85.42 -435.17,85.42 -157.58,0 -306.78,-33.32 -434.96,-106.32 -129,-69.19 -242.36,-167.11 -333.39,-289.23 -87.37,-118.32 -155.13,-256.71 -204.94,-415.54 -45.72,-158.84 -58.71,-326.6 -58.71,-502.29 v -1777.25 h -124.51 v 1777.25 c 0,590.23 168.98,815.94 231.04,917.83 62.05,101.87 164.75,197.89 255.38,275.31 91.44,77.4 198.11,136.21 305.88,176.72 111.85,44.92 239.69,66.07 364.21,66.07 249.01,8.01 455.98,-55.16 621.73,-189.73 170.22,-130.35 281.68,-311.25 347.81,-543.48 62.45,219.8 184.92,396.88 366.99,531.45 182.49,134.37 397.61,201.76 646.63,201.76 195.13,0 356.38,-28.68 484.98,-85.64 128.59,-57.36 231.87,-136.57 310.66,-238.05 78.79,-98.27 134.72,-218.2 168.19,-360.99 33.06,-138.38 49.81,-292.79 49.81,-464.07 z m 953.32,3027.47 c 0,77.21 64.09,139.78 142.46,139.78 78.79,0 142.47,-62.57 142.47,-139.78 0,-77.41 -63.68,-139.98 -142.47,-139.98 -78.37,0 -142.46,62.57 -142.46,139.98 z m -714.71,781.85 c 225.46,182.67 536.44,287.43 853.19,287.43 313.34,0 603.31,-99.02 816.47,-278.8 243,-204.97 371.45,-500.98 371.45,-856.06 h -112.8 c 0,321.77 -114.85,588.7 -332.12,771.96 -192.73,162.56 -456.59,252.08 -743,252.08 -564.14,0 -1135.25,-351.75 -1135.25,-1024.04 h -112.79 c 0,345.12 136.53,638.16 394.85,847.43 z"
           style="fill:#000000;fill-opacity:1;stroke:#000000;stroke-width:200;stroke-linecap:butt;stroke-linejoin:miter;stroke-miterlimit:10;stroke-dasharray:none;stroke-opacity:1"
           id="path54"
           inkscape:connector-curvature="0" />
      </g>
    </g>
  </g>
</svg>
