<?xml version="1.0" encoding="UTF-8"?><!DOCTYPE svg PUBLIC "-//W3C//DTD SVG 1.1//EN" "http://www.w3.org/Graphics/SVG/1.1/DTD/svg11.dtd"><svg xmlns="http://www.w3.org/2000/svg" xmlns:xlink="http://www.w3.org/1999/xlink" version="1.1" width="24" height="24" viewBox="0 0 24 24"><path d="m6.6167 2.7376c-0.36944 0-0.64202 0.087706-0.81795 0.26363-0.15833 0.15833-0.23773 0.42222-0.23773 0.79166v16.625c0 0.56296 0.52777 0.84462 1.5833 0.84462h0.89719c1.0555 0 1.5833-0.28166 1.5833-0.84462v-6.1222h2.7975c0.7037 0 1.5127-0.14933 2.4276-0.4484s1.7416-0.8707 2.4805-1.7151c0.73888-0.86203 1.1086-2.0673 1.1086-3.6154 0-1.914-0.45948-3.2987-1.3746-4.1578v4.8048c0 0.85261-0.80575 1.5439-1.7986 1.5439-0.99289 0-1.7982-0.69153-1.7982-1.5439 0-0.85236 0.80536-1.5435 1.7982-1.5435a2.5927 3.3381 0 0 1 0.59954 0.094704v-4.1454c-0.11951-0.060012-0.24036-0.11696-0.36297-0.17047l-4.4326 1.6722v5.6363c0 0.85236-0.80574 1.5435-1.7986 1.5435-0.99288 0-1.7982-0.69114-1.7982-1.5435 0-0.85237 0.80536-1.5439 1.7982-1.5439a2.604 3.3525 0 0 1 0.59954 0.094706v-6.3051a0.59948 0.77181 0 0 1 0.02474-0.2157z"/></svg>
