<?xml version="1.0" encoding="UTF-8"?><!DOCTYPE svg PUBLIC "-//W3C//DTD SVG 1.1//EN" "http://www.w3.org/Graphics/SVG/1.1/DTD/svg11.dtd"><svg xmlns="http://www.w3.org/2000/svg" xmlns:xlink="http://www.w3.org/1999/xlink" version="1.1" width="24" height="24" viewBox="0 0 24 24"><path d="M 11.639294,1.617272 2.8423984,6.6645553 V 17.335444 l 8.7968956,5.047284 V 10.269681 l -3.8935567,2.30664 v 3.111639 c 7.368e-4,0.02022 0.00153,0.04052 0,0.06166 0,0 0.017986,0.240796 0,0.28789 -0.083988,0.376006 -0.4613366,0.698479 -0.8595925,0.96361 -0.6989856,0.464261 -1.5224017,0.439452 -1.8802379,-0.09805 -0.3569094,-0.537311 -0.1215777,-1.410818 0.5774066,-1.875078 0.3902828,-0.2592 0.7783031,-0.348233 1.1526411,-0.288161 V 7.4459291 c 0,-0.00421 0.00166,-0.00739 0.00166,-0.011727 7.38e-4,-0.015207 0.00217,-0.030222 0.00433,-0.046168 0.00204,-0.012976 0.00357,-0.026335 0.0065,-0.038571 0.0028,-0.012976 0.0079,-0.026679 0.012237,-0.039655 0.00446,-0.012976 0.00816,-0.026131 0.013856,-0.039107 0.00599,-0.012237 0.012364,-0.024155 0.019553,-0.036392 0.0065,-0.012364 0.012938,-0.0239 0.020917,-0.035576 0.00803,-0.011472 0.017425,-0.021491 0.026883,-0.03151 0.00867,-0.010962 0.017233,-0.022039 0.027431,-0.032045 0.00943,-0.00867 0.019592,-0.015921 0.029598,-0.0239 0.012364,-0.010197 0.024843,-0.019528 0.038572,-0.028247 0.00293,-0.00204 0.00586,-0.00433 0.00867,-0.0065 L 11.639287,4.2128533 Z m 0.721351,0 v 5.3359866 c 0.399924,0.021695 0.910212,0.1023048 1.442702,0.3340597 0.178177,0.00293 0.908196,-0.024627 1.434011,-0.6192322 -0.197088,-0.2823758 -0.216517,-0.6665007 -0.02092,-0.9750187 0.161489,-0.2569743 0.440242,-0.4103767 0.745794,-0.4103767 0.166682,0 0.329661,0.046819 0.470942,0.1352537 0.200611,0.1273776 0.338808,0.3245878 0.391094,0.5548641 0.05062,0.2302763 0.0094,0.465659 -0.116517,0.6640444 -0.161489,0.2564185 -0.440528,0.4106482 -0.745523,0.4106482 -0.0877,0 -0.172877,-0.013639 -0.255569,-0.038291 -0.343189,0.4077101 -0.759108,0.6228446 -1.12195,0.7352015 0.291274,0.2230451 0.549032,0.4915424 0.77078,0.8022859 0.22731,-0.051356 0.473423,-0.016698 0.672736,0.10864 0.412717,0.2614241 0.535805,0.8074891 0.275125,1.2189085 -0.162974,0.257902 -0.442542,0.411464 -0.746612,0.411464 -0.167421,0 -0.330933,-0.04715 -0.472028,-0.136883 -0.409934,-0.2601276 -0.533309,-0.8062054 -0.274852,-1.2183666 0.01743,-0.026692 0.03574,-0.052006 0.05595,-0.077398 -0.327986,-0.4483146 -0.744474,-0.7892028 -1.241181,-1.0152141 -7.37e-4,0 -0.0017,-7.26e-5 -0.0024,-8.208e-4 -0.461294,-0.2085828 -0.90946,-0.2867633 -1.261549,-0.307715 v 3.4611825 c 0.742371,0.05433 1.090691,0.427786 1.350632,0.724067 0.195605,0.222304 0.30655,0.339885 0.499188,0.350083 0.279594,0.01447 0.49245,0.0064 0.698809,-8.2e-4 0.25067,-0.0087 0.480146,-0.01681 0.763448,0.01657 0.818388,-0.01317 1.095612,-0.193235 1.388927,-0.384576 0.23454,-0.152034 0.498299,-0.322997 0.984252,-0.393266 0.02317,-0.07824 0.05651,-0.155015 0.102114,-0.227324 0.02762,-0.04283 0.05881,-0.08206 0.09125,-0.118952 0.01966,-0.02096 0.04144,-0.03838 0.06166,-0.05784 -0.160007,-0.590338 -0.188887,-1.4275371 0.006,-2.0785021 -0.0037,-0.0037 -0.0074,-0.00586 -0.01033,-0.00867 -0.30926,-0.2825606 -0.37958,-0.7548964 -0.148561,-1.1197776 0.162232,-0.2571603 0.441885,-0.411464 0.74688,-0.411464 0.166495,0 0.32939,0.047889 0.470671,0.1368828 0.200611,0.1268166 0.338921,0.3238599 0.390279,0.554321 0.05136,0.2302764 0.01032,0.4654742 -0.115702,0.6640457 -0.161489,0.2562324 -0.441257,0.4103767 -0.746067,0.4103767 -0.01595,0 -0.03267,-0.00204 -0.04862,-0.00357 -0.137573,0.5041234 -0.107046,1.1691225 -0.0048,1.6246705 0.01798,-0.0015 0.03615,-0.0029 0.05431,-0.0029 0.166497,0 0.329391,0.04707 0.470671,0.136068 0.200613,0.127562 0.338923,0.323662 0.390279,0.554865 0.05136,0.229534 0.01033,0.465745 -0.115701,0.664317 -0.161489,0.256232 -0.441257,0.410376 -0.746067,0.410376 -0.167421,0 -0.329648,-0.0477 -0.471484,-0.136882 -0.01892,-0.01224 -0.03027,-0.0202 -0.04047,-0.02743 -0.140538,-0.09919 -0.243642,-0.23315 -0.304456,-0.382403 -0.323721,0.05433 -0.494549,0.164431 -0.700166,0.29848 -0.167978,0.108461 -0.346129,0.224384 -0.607555,0.315048 0.653933,0.481503 1.532365,1.384732 1.901696,1.988604 0.07175,-0.01799 0.146233,-0.02743 0.222433,-0.02743 0.167238,0 0.329663,0.047 0.470943,0.135254 0.200611,0.12756 0.339466,0.324674 0.390822,0.555135 0.05136,0.230277 0.01033,0.465399 -0.115702,0.66323 -0.162232,0.256975 -0.441058,0.411192 -0.746608,0.411192 -0.166682,0 -0.329847,-0.04669 -0.470943,-0.136612 -0.01892,-0.01224 -0.03034,-0.0202 -0.04129,-0.02743 -0.381012,-0.26884 -0.484525,-0.792606 -0.233299,-1.19012 0.01373,-0.02169 0.02969,-0.04199 0.04563,-0.06219 -0.386017,-0.670616 -1.754825,-1.973031 -2.130646,-2.065734 -0.490217,-0.121628 -0.773408,-0.111291 -1.132543,-0.09831 -0.208583,0.0073 -0.445675,0.01669 -0.751227,0 -0.444793,-0.02391 -0.6879,-0.301362 -0.902232,-0.545357 -0.224529,-0.257161 -0.441154,-0.486148 -0.916354,-0.528792 v 6.056182 c 0.07323,-0.01447 0.197878,-0.04002 0.368823,-0.116785 0.01651,-0.0094 0.0337,-0.01741 0.05188,-0.0239 0.482245,-0.231018 1.227665,-0.787868 1.812069,-2.117611 -0.164271,-0.12089 -0.281628,-0.29349 -0.33243,-0.494842 -0.0571,-0.22805 -0.02302,-0.465554 0.09805,-0.668389 0.158523,-0.265876 0.449572,-0.429933 0.758831,-0.429933 0.158708,0 0.315101,0.04262 0.451931,0.124395 0.417908,0.249929 0.554803,0.793052 0.306356,1.210218 -0.153568,0.256414 -0.42954,0.417817 -0.726563,0.42857 -0.371556,0.865481 -0.814734,1.452194 -1.237648,1.850635 0.249002,0.04839 0.428856,0.152034 0.598318,0.266432 0.132567,0.09067 0.202104,0.134196 0.32021,0.140685 0.154257,0.0045 0.487444,-0.09142 0.768336,-0.19283 -0.03393,-0.283118 0.06869,-0.578444 0.301196,-0.777572 0.160007,-0.137572 0.363611,-0.213201 0.574419,-0.213201 0.257718,0 0.501769,0.112299 0.669749,0.307715 0.153517,0.178919 0.228184,0.407309 0.210756,0.642591 -0.01818,0.235467 -0.126626,0.449073 -0.305542,0.601849 -0.159264,0.137758 -0.363525,0.212928 -0.574148,0.212928 -0.231759,0 -0.452862,-0.0911 -0.617875,-0.252037 -0.266615,0.101413 -0.70843,0.248236 -1.012498,0.248236 -0.01521,0 -0.03035,-5.57e-4 -0.04482,-0.0014 -0.284044,-0.01447 -0.467389,-0.138995 -0.615158,-0.238187 -0.226012,-0.153518 -0.441024,-0.298464 -1.211577,-0.102113 -0.341145,0.154257 -0.572846,0.16738 -0.612709,0.171644 v 4.181718 l 8.796897,-5.047318 V 6.6645553 Z m 3.601595,4.2433683 c -0.105683,0 -0.202133,0.052707 -0.257199,0.1409566 -0.08677,0.1377584 -0.05116,0.3172035 0.08066,0.4106494 l 0.01359,0.00956 c 0.140538,0.089176 0.333198,0.042778 0.420154,-0.094249 0.04339,-0.068781 0.05791,-0.1496982 0.03992,-0.2286817 -0.01742,-0.079731 -0.06593,-0.147618 -0.134709,-0.1917444 -0.04858,-0.030414 -0.105122,-0.046449 -0.162413,-0.046449 z M 11.639294,7.5301221 7.7457373,9.8367618 V 11.567624 L 11.639294,9.2601698 Z M 18.8949,7.8587493 c -0.105874,0 -0.20139,0.052784 -0.257198,0.1412293 -0.0877,0.1375723 -0.05199,0.3180181 0.08039,0.4114627 l 0.01386,0.00841 c 0.140352,0.089176 0.333669,0.042854 0.419882,-0.093968 0.04357,-0.068972 0.05735,-0.1498971 0.03992,-0.2281387 -0.01818,-0.080279 -0.06593,-0.1486314 -0.134711,-0.1920159 -0.04858,-0.030401 -0.105033,-0.046984 -0.162142,-0.046984 z m -3.336791,1.2392789 c -0.05784,0 -0.113764,0.015959 -0.161598,0.045633 -0.04042,0.024665 -0.07304,0.056404 -0.09695,0.094784 -0.08974,0.142764 -0.04777,0.3318482 0.09424,0.4223267 0.04913,0.030401 0.105121,0.046984 0.162413,0.046984 0.105682,0 0.201992,-0.053408 0.259099,-0.1425868 0.08993,-0.1418374 0.04697,-0.3302192 -0.0956,-0.4206977 -0.04784,-0.030401 -0.104306,-0.046436 -0.161599,-0.046436 z M 18.8949,11.242528 c -0.105874,0 -0.20139,0.05278 -0.257198,0.141228 -0.0877,0.137572 -0.05199,0.317945 0.08039,0.410649 l 0.01386,0.0092 c 0.140352,0.08918 0.333669,0.04285 0.419882,-0.09397 0.04357,-0.06897 0.05735,-0.149968 0.03992,-0.228953 -0.01818,-0.07954 -0.06593,-0.147816 -0.134711,-0.191201 -0.04858,-0.03115 -0.105033,-0.04698 -0.162142,-0.04698 z m -3.777042,3.107567 c -0.108653,0 -0.206552,0.05585 -0.26236,0.148561 -0.0419,0.07008 -0.05333,0.152142 -0.03368,0.231125 0.0202,0.0788 0.06953,0.145424 0.139056,0.186585 0.04784,0.02837 0.102113,0.04372 0.156437,0.04372 0.108462,0 0.20628,-0.05593 0.262087,-0.149376 0.08548,-0.144062 0.03825,-0.331025 -0.106741,-0.417981 -0.04635,-0.02744 -0.100482,-0.04264 -0.154807,-0.04264 z m 3.777042,0.685228 c -0.105874,0 -0.20139,0.05278 -0.257198,0.141229 -0.0877,0.137571 -0.05199,0.318017 0.08039,0.411463 l 0.01386,0.0084 c 0.140352,0.08918 0.333669,0.04361 0.419882,-0.09397 0.04357,-0.06878 0.05735,-0.149155 0.03992,-0.228137 -0.01818,-0.08028 -0.06593,-0.14789 -0.134711,-0.192016 -0.04858,-0.03041 -0.105033,-0.04699 -0.162142,-0.04699 z m -2.420436,2.152374 c -0.05155,0 -0.127709,0.01236 -0.198535,0.07387 -0.127559,0.109392 -0.141981,0.302015 -0.03259,0.429388 0.05711,0.06749 0.14202,0.105925 0.231941,0.105925 0.05062,0 0.126434,-0.01224 0.197449,-0.07306 0.06229,-0.05283 0.09916,-0.12702 0.105644,-0.20804 0.006,-0.08121 -0.01948,-0.159051 -0.07306,-0.221348 -0.05804,-0.06823 -0.141859,-0.106741 -0.230854,-0.106741 z"/></svg>
