<?xml version="1.0" encoding="UTF-8" standalone="no"?>
<svg
   xmlns:dc="http://purl.org/dc/elements/1.1/"
   xmlns:cc="http://creativecommons.org/ns#"
   xmlns:rdf="http://www.w3.org/1999/02/22-rdf-syntax-ns#"
   xmlns:svg="http://www.w3.org/2000/svg"
   xmlns="http://www.w3.org/2000/svg"
   id="svg8"
   version="1.1"
   viewBox="0 0 7.1759187 7.1759184"
   height="7.1759186mm"
   width="7.1759186mm">
  <defs
     id="defs2" />
  <metadata
     id="metadata5">
    <rdf:RDF>
      <cc:Work
         rdf:about="">
        <dc:format>image/svg+xml</dc:format>
        <dc:type
           rdf:resource="http://purl.org/dc/dcmitype/StillImage" />
        <dc:title></dc:title>
      </cc:Work>
    </rdf:RDF>
  </metadata>
  <g
     style="display:inline"
     id="g904"
     transform="translate(-7.6391621,-5.2188855)">
    <circle
       style="fill:#59a14e;fill-opacity:1;stroke:none;stroke-width:0.01852407;stroke-miterlimit:4;stroke-dasharray:none;stroke-opacity:1"
       id="circle902"
       cx="11.227121"
       cy="8.8068447"
       r="3.5786972" />
  </g>
  <g
     transform="translate(-7.6391621,-5.2188855)"
     style="display:inline;opacity:0.97000002"
     id="layer4">
    <path
       style="display:inline;fill:#ffffff;stroke-width:0.26458332"
       d="m 13.599839,6.4255697 v 3.3073 a 0.92604167,0.92604167 0 0 1 -0.926042,0.9260403 0.92604167,0.92604167 0 0 1 -0.926041,-0.9260403 0.92604167,0.92604167 0 0 1 0.926041,-0.92605 c 0.142875,0 0.277813,0.0318 0.396875,0.09 v -1.5531 l -2.645833,0.56356 V 10.26207 a 0.92604167,0.92604167 0 0 1 -0.9260445,0.92605 0.92604167,0.92604167 0 0 1 -0.926041,-0.92605 0.92604167,0.92604167 0 0 1 0.926041,-0.9260403 c 0.142875,0 0.277813,0.0318 0.3968757,0.09 v -2.20663 z"
       id="path826" />
  </g>
</svg>
